  0
SECTION
  2
HEADER
  9
$ACADVER
  1
AC1027
  9
$ACADMAINTVER
 70
105
  9
$DWGCODEPAGE
  3
ANSI_1252
  9
$LASTSAVEDBY
  1
ezdxf
  9
$REQUIREDVERSIONS
160
0
  9
$INSBASE
 10
0.0
 20
0.0
 30
0.0
  9
$EXTMIN
 10
1e+20
 20
1e+20
 30
1e+20
  9
$EXTMAX
 10
-1e+20
 20
-1e+20
 30
-1e+20
  9
$LIMMIN
 10
0.0
 20
0.0
  9
$LIMMAX
 10
420.0
 20
297.0
  9
$ORTHOMODE
 70
0
  9
$REGENMODE
 70
1
  9
$FILLMODE
 70
1
  9
$QTEXTMODE
 70
0
  9
$MIRRTEXT
 70
1
  9
$LTSCALE
 40
1.0
  9
$ATTMODE
 70
1
  9
$TEXTSIZE
 40
2.5
  9
$TRACEWID
 40
1.0
  9
$TEXTSTYLE
  7
OpenSans
  9
$CLAYER
  8
0
  9
$CELTYPE
  6
ByLayer
  9
$CECOLOR
 62
256
  9
$CELTSCALE
 40
1.0
  9
$DISPSILH
 70
0
  9
$DIMSCALE
 40
1.0
  9
$DIMASZ
 40
0.175
  9
$DIMEXO
 40
0.125
  9
$DIMDLI
 40
3.75
  9
$DIMRND
 40
0.0
  9
$DIMDLE
 40
0.0
  9
$DIMEXE
 40
0.375
  9
$DIMTP
 40
0.0
  9
$DIMTM
 40
0.0
  9
$DIMTXT
 40
0.25
  9
$DIMCEN
 40
2.5
  9
$DIMTSZ
 40
0.0
  9
$DIMTOL
 70
0
  9
$DIMLIM
 70
0
  9
$DIMTIH
 70
0
  9
$DIMTOH
 70
0
  9
$DIMSE1
 70
0
  9
$DIMSE2
 70
0
  9
$DIMTAD
 70
1
  9
$DIMZIN
 70
12
  9
$DIMBLK
  1
ARCHTICK
  9
$DIMASO
 70
1
  9
$DIMSHO
 70
1
  9
$DIMPOST
  1

  9
$DIMAPOST
  1

  9
$DIMALT
 70
0
  9
$DIMALTD
 70
3
  9
$DIMALTF
 40
0.03937007874
  9
$DIMLFAC
 40
100.0
  9
$DIMTOFL
 70
1
  9
$DIMTVP
 40
0.0
  9
$DIMTIX
 70
0
  9
$DIMSOXD
 70
0
  9
$DIMSAH
 70
0
  9
$DIMBLK1
  1

  9
$DIMBLK2
  1

  9
$DIMSTYLE
  2
EZDXF
  9
$DIMCLRD
 70
0
  9
$DIMCLRE
 70
0
  9
$DIMCLRT
 70
0
  9
$DIMTFAC
 40
0.5
  9
$DIMGAP
 40
0.1
  9
$DIMJUST
 70
0
  9
$DIMSD1
 70
0
  9
$DIMSD2
 70
0
  9
$DIMTOLJ
 70
0
  9
$DIMTZIN
 70
8
  9
$DIMALTZ
 70
0
  9
$DIMALTTZ
 70
0
  9
$DIMUPT
 70
1
  9
$DIMDEC
 70
2
  9
$DIMTDEC
 70
2
  9
$DIMALTU
 70
2
  9
$DIMALTTD
 70
3
  9
$DIMTXSTY
  7
OpenSansCondensed-Light
  9
$DIMAUNIT
 70
0
  9
$DIMADEC
 70
2
  9
$DIMALTRND
 40
0.0
  9
$DIMAZIN
 70
3
  9
$DIMDSEP
 70
46
  9
$DIMATFIT
 70
3
  9
$DIMFRAC
 70
0
  9
$DIMLDRBLK
  1

  9
$DIMLUNIT
 70
2
  9
$DIMLWD
 70
-2
  9
$DIMLWE
 70
-2
  9
$DIMTMOVE
 70
2
  9
$DIMFXL
 40
1.0
  9
$DIMFXLON
 70
0
  9
$DIMJOGANG
 40
0.785398163397
  9
$DIMTFILL
 70
0
  9
$DIMTFILLCLR
 70
0
  9
$DIMARCSYM
 70
0
  9
$DIMLTYPE
  6

  9
$DIMLTEX1
  6

  9
$DIMLTEX2
  6

  9
$DIMTXTDIRECTION
 70
0
  9
$LUNITS
 70
2
  9
$LUPREC
 70
4
  9
$SKETCHINC
 40
1.0
  9
$FILLETRAD
 40
10.0
  9
$AUNITS
 70
0
  9
$AUPREC
 70
2
  9
$MENU
  1
.
  9
$ELEVATION
 40
0.0
  9
$PELEVATION
 40
0.0
  9
$THICKNESS
 40
0.0
  9
$LIMCHECK
 70
0
  9
$CHAMFERA
 40
0.0
  9
$CHAMFERB
 40
0.0
  9
$CHAMFERC
 40
0.0
  9
$CHAMFERD
 40
0.0
  9
$SKPOLY
 70
0
  9
$TDCREATE
 40
2461300.5821875
  9
$TDUCREATE
 40
2458532.153996898
  9
$TDUPDATE
 40
2461300.5821875
  9
$TDUUPDATE
 40
2458532.1544311
  9
$TDINDWG
 40
0.0
  9
$TDUSRTIMER
 40
0.0
  9
$USRTIMER
 70
1
  9
$ANGBASE
 50
0.0
  9
$ANGDIR
 70
0
  9
$PDMODE
 70
0
  9
$PDSIZE
 40
0.0
  9
$PLINEWID
 40
0.0
  9
$SPLFRAME
 70
0
  9
$SPLINETYPE
 70
6
  9
$SPLINESEGS
 70
8
  9
$HANDSEED
  5
24E
  9
$SURFTAB1
 70
6
  9
$SURFTAB2
 70
6
  9
$SURFTYPE
 70
6
  9
$SURFU
 70
6
  9
$SURFV
 70
6
  9
$UCSBASE
  2

  9
$UCSNAME
  2

  9
$UCSORG
 10
0.0
 20
0.0
 30
0.0
  9
$UCSXDIR
 10
1.0
 20
0.0
 30
0.0
  9
$UCSYDIR
 10
0.0
 20
1.0
 30
0.0
  9
$UCSORTHOREF
  2

  9
$UCSORTHOVIEW
 70
0
  9
$UCSORGTOP
 10
0.0
 20
0.0
 30
0.0
  9
$UCSORGBOTTOM
 10
0.0
 20
0.0
 30
0.0
  9
$UCSORGLEFT
 10
0.0
 20
0.0
 30
0.0
  9
$UCSORGRIGHT
 10
0.0
 20
0.0
 30
0.0
  9
$UCSORGFRONT
 10
0.0
 20
0.0
 30
0.0
  9
$UCSORGBACK
 10
0.0
 20
0.0
 30
0.0
  9
$PUCSBASE
  2

  9
$PUCSNAME
  2

  9
$PUCSORG
 10
0.0
 20
0.0
 30
0.0
  9
$PUCSXDIR
 10
1.0
 20
0.0
 30
0.0
  9
$PUCSYDIR
 10
0.0
 20
1.0
 30
0.0
  9
$PUCSORTHOREF
  2

  9
$PUCSORTHOVIEW
 70
0
  9
$PUCSORGTOP
 10
0.0
 20
0.0
 30
0.0
  9
$PUCSORGBOTTOM
 10
0.0
 20
0.0
 30
0.0
  9
$PUCSORGLEFT
 10
0.0
 20
0.0
 30
0.0
  9
$PUCSORGRIGHT
 10
0.0
 20
0.0
 30
0.0
  9
$PUCSORGFRONT
 10
0.0
 20
0.0
 30
0.0
  9
$PUCSORGBACK
 10
0.0
 20
0.0
 30
0.0
  9
$USERI1
 70
0
  9
$USERI2
 70
0
  9
$USERI3
 70
0
  9
$USERI4
 70
0
  9
$USERI5
 70
0
  9
$USERR1
 40
0.0
  9
$USERR2
 40
0.0
  9
$USERR3
 40
0.0
  9
$USERR4
 40
0.0
  9
$USERR5
 40
0.0
  9
$WORLDVIEW
 70
1
  9
$SHADEDGE
 70
3
  9
$SHADEDIF
 70
70
  9
$TILEMODE
 70
1
  9
$MAXACTVP
 70
64
  9
$PINSBASE
 10
0.0
 20
0.0
 30
0.0
  9
$PLIMCHECK
 70
0
  9
$PEXTMIN
 10
1e+20
 20
1e+20
 30
1e+20
  9
$PEXTMAX
 10
-1e+20
 20
-1e+20
 30
-1e+20
  9
$PLIMMIN
 10
0.0
 20
0.0
  9
$PLIMMAX
 10
420.0
 20
297.0
  9
$UNITMODE
 70
0
  9
$VISRETAIN
 70
1
  9
$PLINEGEN
 70
0
  9
$PSLTSCALE
 70
1
  9
$TREEDEPTH
 70
3020
  9
$CMLSTYLE
  2
Standard
  9
$CMLJUST
 70
0
  9
$CMLSCALE
 40
20.0
  9
$PROXYGRAPHICS
 70
1
  9
$MEASUREMENT
 70
1
  9
$CELWEIGHT
370
-1
  9
$ENDCAPS
280
0
  9
$JOINSTYLE
280
0
  9
$LWDISPLAY
290
0
  9
$INSUNITS
 70
4
  9
$HYPERLINKBASE
  1

  9
$STYLESHEET
  1

  9
$XEDIT
290
1
  9
$CEPSNTYPE
380
0
  9
$PSTYLEMODE
290
1
  9
$FINGERPRINTGUID
  2
{66B463D5-EA05-4407-8DC6-C53204E997F8}
  9
$VERSIONGUID
  2
{8EE64B1E-2AC9-400F-8FD4-A6D2F1774F24}
  9
$EXTNAMES
290
1
  9
$PSVPSCALE
 40
0.0
  9
$OLESTARTUP
290
0
  9
$SORTENTS
280
127
  9
$INDEXCTL
280
0
  9
$HIDETEXT
280
1
  9
$XCLIPFRAME
280
1
  9
$HALOGAP
280
0
  9
$OBSCOLOR
 70
257
  9
$OBSLTYPE
280
0
  9
$INTERSECTIONDISPLAY
280
0
  9
$INTERSECTIONCOLOR
 70
257
  9
$DIMASSOC
280
2
  9
$PROJECTNAME
  1

  9
$CAMERADISPLAY
290
0
  9
$LENSLENGTH
 40
50.0
  9
$CAMERAHEIGHT
 40
0.0
  9
$STEPSPERSEC
 40
24.0
  9
$STEPSIZE
 40
100.0
  9
$3DDWFPREC
 40
2.0
  9
$PSOLWIDTH
 40
0.005
  9
$PSOLHEIGHT
 40
0.08
  9
$LOFTANG1
 40
1.570796326795
  9
$LOFTANG2
 40
1.570796326795
  9
$LOFTMAG1
 40
0.0
  9
$LOFTMAG2
 40
0.0
  9
$LOFTPARAM
 70
7
  9
$LOFTNORMALS
280
1
  9
$LATITUDE
 40
37.795
  9
$LONGITUDE
 40
-122.394
  9
$NORTHDIRECTION
 40
0.0
  9
$TIMEZONE
 70
-8000
  9
$LIGHTGLYPHDISPLAY
280
1
  9
$TILEMODELIGHTSYNCH
280
1
  9
$CMATERIAL
347
20
  9
$SOLIDHIST
280
0
  9
$SHOWHIST
280
1
  9
$DWFFRAME
280
2
  9
$DGNFRAME
280
2
  9
$REALWORLDSCALE
290
1
  9
$INTERFERECOLOR
 62
256
  9
$CSHADOW
280
0
  9
$SHADOWPLANELOCATION
 40
0.0
  0
ENDSEC
  0
SECTION
  2
CLASSES
  0
CLASS
  1
ACDBDICTIONARYWDFLT
  2
AcDbDictionaryWithDefault
  3
ObjectDBX Classes
 90
0
 91
0
280
0
281
0
  0
CLASS
  1
SUN
  2
AcDbSun
  3
SCENEOE
 90
1153
 91
0
280
0
281
0
  0
CLASS
  1
VISUALSTYLE
  2
AcDbVisualStyle
  3
ObjectDBX Classes
 90
4095
 91
0
280
0
281
0
  0
CLASS
  1
MATERIAL
  2
AcDbMaterial
  3
ObjectDBX Classes
 90
1153
 91
0
280
0
281
0
  0
CLASS
  1
SCALE
  2
AcDbScale
  3
ObjectDBX Classes
 90
1153
 91
0
280
0
281
0
  0
CLASS
  1
TABLESTYLE
  2
AcDbTableStyle
  3
ObjectDBX Classes
 90
4095
 91
0
280
0
281
0
  0
CLASS
  1
MLEADERSTYLE
  2
AcDbMLeaderStyle
  3
ACDB_MLEADERSTYLE_CLASS
 90
4095
 91
0
280
0
281
0
  0
CLASS
  1
DICTIONARYVAR
  2
AcDbDictionaryVar
  3
ObjectDBX Classes
 90
0
 91
0
280
0
281
0
  0
CLASS
  1
CELLSTYLEMAP
  2
AcDbCellStyleMap
  3
ObjectDBX Classes
 90
1152
 91
0
280
0
281
0
  0
CLASS
  1
MENTALRAYRENDERSETTINGS
  2
AcDbMentalRayRenderSettings
  3
SCENEOE
 90
1024
 91
0
280
0
281
0
  0
CLASS
  1
ACDBDETAILVIEWSTYLE
  2
AcDbDetailViewStyle
  3
ObjectDBX Classes
 90
1025
 91
0
280
0
281
0
  0
CLASS
  1
ACDBSECTIONVIEWSTYLE
  2
AcDbSectionViewStyle
  3
ObjectDBX Classes
 90
1025
 91
0
280
0
281
0
  0
CLASS
  1
RASTERVARIABLES
  2
AcDbRasterVariables
  3
ISM
 90
0
 91
0
280
0
281
0
  0
CLASS
  1
ACDBPLACEHOLDER
  2
AcDbPlaceHolder
  3
ObjectDBX Classes
 90
0
 91
0
280
0
281
0
  0
CLASS
  1
LAYOUT
  2
AcDbLayout
  3
ObjectDBX Classes
 90
0
 91
0
280
0
281
0
  0
ENDSEC
  0
SECTION
  2
TABLES
  0
TABLE
  2
VPORT
  5
8
330
0
100
AcDbSymbolTable
 70
1
  0
VPORT
  5
23
330
8
100
AcDbSymbolTableRecord
100
AcDbViewportTableRecord
  2
*Active
 70
0
 10
0.0
 20
0.0
 11
1.0
 21
1.0
 12
0.0
 22
0.0
 13
0.0
 23
0.0
 14
0.5
 24
0.5
 15
0.5
 25
0.5
 16
0.0
 26
0.0
 36
1.0
 17
0.0
 27
0.0
 37
0.0
 40
1000.0
 41
1.34
 42
50.0
 43
0.0
 44
0.0
 50
0.0
 51
0.0
 71
0
 72
1000
 73
1
 74
3
 75
0
 76
0
 77
0
 78
0
281
0
 65
0
146
0.0
  0
ENDTAB
  0
TABLE
  2
LTYPE
  5
2
330
0
100
AcDbSymbolTable
 70
22
  0
LTYPE
  5
24
330
2
100
AcDbSymbolTableRecord
100
AcDbLinetypeTableRecord
  2
ByBlock
 70
0
  3

 72
65
 73
0
 40
0.0
  0
LTYPE
  5
25
330
2
100
AcDbSymbolTableRecord
100
AcDbLinetypeTableRecord
  2
ByLayer
 70
0
  3

 72
65
 73
0
 40
0.0
  0
LTYPE
  5
26
330
2
100
AcDbSymbolTableRecord
100
AcDbLinetypeTableRecord
  2
Continuous
 70
0
  3

 72
65
 73
0
 40
0.0
  0
LTYPE
  5
2F
330
2
100
AcDbSymbolTableRecord
100
AcDbLinetypeTableRecord
  2
CENTER
 70
0
  3
Center ____ _ ____ _ ____ _ ____ _ ____ _ ____
 72
65
 73
4
 40
5.08
 49
3.175
 74
0
 49
-0.635
 74
0
 49
0.635
 74
0
 49
-0.635
 74
0
  0
LTYPE
  5
30
330
2
100
AcDbSymbolTableRecord
100
AcDbLinetypeTableRecord
  2
CENTERX2
 70
0
  3
Center (2x) ________  __  ________  __  ________
 72
65
 73
4
 40
8.89
 49
6.35
 74
0
 49
-0.635
 74
0
 49
1.27
 74
0
 49
-0.635
 74
0
  0
LTYPE
  5
31
330
2
100
AcDbSymbolTableRecord
100
AcDbLinetypeTableRecord
  2
CENTER2
 70
0
  3
Center (.5x) ____ _ ____ _ ____ _ ____ _ ____
 72
65
 73
4
 40
2.54
 49
1.587
 74
0
 49
-0.318
 74
0
 49
0.318
 74
0
 49
-0.318
 74
0
  0
LTYPE
  5
32
330
2
100
AcDbSymbolTableRecord
100
AcDbLinetypeTableRecord
  2
DASHED
 70
0
  3
Dashed __ __ __ __ __ __ __ __ __ __ __ __ __ _
 72
65
 73
2
 40
1.524
 49
1.27
 74
0
 49
-0.254
 74
0
  0
LTYPE
  5
33
330
2
100
AcDbSymbolTableRecord
100
AcDbLinetypeTableRecord
  2
DASHEDX2
 70
0
  3
Dashed (2x) ____  ____  ____  ____  ____  ____
 72
65
 73
2
 40
3.048
 49
2.54
 74
0
 49
-0.508
 74
0
  0
LTYPE
  5
34
330
2
100
AcDbSymbolTableRecord
100
AcDbLinetypeTableRecord
  2
DASHED2
 70
0
  3
Dashed (.5x) _ _ _ _ _ _ _ _ _ _ _ _ _ _
 72
65
 73
2
 40
0.762
 49
0.635
 74
0
 49
-0.127
 74
0
  0
LTYPE
  5
35
330
2
100
AcDbSymbolTableRecord
100
AcDbLinetypeTableRecord
  2
PHANTOM
 70
0
  3
Phantom ______  __  __  ______  __  __  ______
 72
65
 73
6
 40
6.35
 49
3.175
 74
0
 49
-0.635
 74
0
 49
0.635
 74
0
 49
-0.635
 74
0
 49
0.635
 74
0
 49
-0.635
 74
0
  0
LTYPE
  5
36
330
2
100
AcDbSymbolTableRecord
100
AcDbLinetypeTableRecord
  2
PHANTOMX2
 70
0
  3
Phantom (2x)____________    ____    ____    ____________
 72
65
 73
6
 40
10.795
 49
6.35
 74
0
 49
-0.635
 74
0
 49
1.27
 74
0
 49
-0.635
 74
0
 49
1.27
 74
0
 49
-0.635
 74
0
  0
LTYPE
  5
37
330
2
100
AcDbSymbolTableRecord
100
AcDbLinetypeTableRecord
  2
PHANTOM2
 70
0
  3
Phantom (.5x) ___ _ _ ___ _ _ ___ _ _ ___ _ _ ___
 72
65
 73
6
 40
3.175
 49
1.587
 74
0
 49
-0.318
 74
0
 49
0.318
 74
0
 49
-0.318
 74
0
 49
0.318
 74
0
 49
-0.318
 74
0
  0
LTYPE
  5
38
330
2
100
AcDbSymbolTableRecord
100
AcDbLinetypeTableRecord
  2
DASHDOT
 70
0
  3
Dash dot __ . __ . __ . __ . __ . __ . __ . __
 72
65
 73
4
 40
3.556
 49
2.54
 74
0
 49
-0.508
 74
0
 49
0.0
 74
0
 49
-0.508
 74
0
  0
LTYPE
  5
39
330
2
100
AcDbSymbolTableRecord
100
AcDbLinetypeTableRecord
  2
DASHDOTX2
 70
0
  3
Dash dot (2x) ____  .  ____  .  ____  .  ____
 72
65
 73
4
 40
6.096
 49
5.08
 74
0
 49
-0.508
 74
0
 49
0.0
 74
0
 49
-0.508
 74
0
  0
LTYPE
  5
3A
330
2
100
AcDbSymbolTableRecord
100
AcDbLinetypeTableRecord
  2
DASHDOT2
 70
0
  3
Dash dot (.5x) _ . _ . _ . _ . _ . _ . _ . _
 72
65
 73
4
 40
1.778
 49
1.27
 74
0
 49
-0.254
 74
0
 49
0.0
 74
0
 49
-0.254
 74
0
  0
LTYPE
  5
3B
330
2
100
AcDbSymbolTableRecord
100
AcDbLinetypeTableRecord
  2
DOT
 70
0
  3
Dot .  .  .  .  .  .  .  .  .  .  .  .  .  .  .  .
 72
65
 73
2
 40
0.508
 49
0.0
 74
0
 49
-0.508
 74
0
  0
LTYPE
  5
3C
330
2
100
AcDbSymbolTableRecord
100
AcDbLinetypeTableRecord
  2
DOTX2
 70
0
  3
Dot (2x) .    .    .    .    .    .    .    . 
 72
65
 73
2
 40
1.016
 49
0.0
 74
0
 49
-1.016
 74
0
  0
LTYPE
  5
3D
330
2
100
AcDbSymbolTableRecord
100
AcDbLinetypeTableRecord
  2
DOT2
 70
0
  3
Dot (.5) . . . . . . . . . . . . . . . . . . . 
 72
65
 73
2
 40
0.254
 49
0.0
 74
0
 49
-0.254
 74
0
  0
LTYPE
  5
3E
330
2
100
AcDbSymbolTableRecord
100
AcDbLinetypeTableRecord
  2
DIVIDE
 70
0
  3
Divide __ . . __ . . __ . . __ . . __ . . __
 72
65
 73
6
 40
4.064
 49
2.54
 74
0
 49
-0.508
 74
0
 49
0.0
 74
0
 49
-0.508
 74
0
 49
0.0
 74
0
 49
-0.508
 74
0
  0
LTYPE
  5
3F
330
2
100
AcDbSymbolTableRecord
100
AcDbLinetypeTableRecord
  2
DIVIDEX2
 70
0
  3
Divide (2x) ____  . .  ____  . .  ____  . .  ____
 72
65
 73
6
 40
6.604
 49
5.08
 74
0
 49
-0.508
 74
0
 49
0.0
 74
0
 49
-0.508
 74
0
 49
0.0
 74
0
 49
-0.508
 74
0
  0
LTYPE
  5
40
330
2
100
AcDbSymbolTableRecord
100
AcDbLinetypeTableRecord
  2
DIVIDE2
 70
0
  3
Divide(.5x) _ . _ . _ . _ . _ . _ . _ . _
 72
65
 73
6
 40
2.032
 49
1.27
 74
0
 49
-0.254
 74
0
 49
0.0
 74
0
 49
-0.254
 74
0
 49
0.0
 74
0
 49
-0.254
 74
0
  0
LTYPE
  5
9E
330
2
100
AcDbSymbolTableRecord
100
AcDbLinetypeTableRecord
  2
HIDDEN2
 70
0
  3

 72
65
 73
2
 40
300.0
 49
200.0
 74
0
 49
-100.0
 74
0
  0
ENDTAB
  0
TABLE
  2
LAYER
  5
1
330
0
100
AcDbSymbolTable
 70
21
  0
LAYER
  5
27
330
1
100
AcDbSymbolTableRecord
100
AcDbLayerTableRecord
  2
0
 70
0
 62
7
  6
Continuous
370
-3
390
13
347
21
  0
LAYER
  5
28
330
1
100
AcDbSymbolTableRecord
100
AcDbLayerTableRecord
  2
Defpoints
 70
0
 62
7
  6
Continuous
290
0
370
-3
390
13
347
21
  0
LAYER
  5
8B
330
1
100
AcDbSymbolTableRecord
100
AcDbLayerTableRecord
  2
A-WALL
 70
0
 62
7
  6
Continuous
370
35
390
13
347
21
  0
LAYER
  5
8C
330
1
100
AcDbSymbolTableRecord
100
AcDbLayerTableRecord
  2
A-COLM
 70
0
 62
1
  6
Continuous
370
35
390
13
347
21
  0
LAYER
  5
8D
330
1
100
AcDbSymbolTableRecord
100
AcDbLayerTableRecord
  2
A-WIND
 70
0
 62
4
  6
Continuous
370
18
390
13
347
21
  0
LAYER
  5
8E
330
1
100
AcDbSymbolTableRecord
100
AcDbLayerTableRecord
  2
A-GRID
 70
0
 62
8
  6
Continuous
370
9
390
13
347
21
  0
LAYER
  5
8F
330
1
100
AcDbSymbolTableRecord
100
AcDbLayerTableRecord
  2
A-DIM
 70
0
 62
3
  6
Continuous
370
9
390
13
347
21
  0
LAYER
  5
90
330
1
100
AcDbSymbolTableRecord
100
AcDbLayerTableRecord
  2
A-ANNO
 70
0
 62
2
  6
Continuous
370
13
390
13
347
21
  0
LAYER
  5
91
330
1
100
AcDbSymbolTableRecord
100
AcDbLayerTableRecord
  2
A-TTLB
 70
0
 62
7
  6
Continuous
370
25
390
13
347
21
  0
LAYER
  5
92
330
1
100
AcDbSymbolTableRecord
100
AcDbLayerTableRecord
  2
A-MISC
 70
0
 62
8
  6
Continuous
370
13
390
13
347
21
  0
LAYER
  5
93
330
1
100
AcDbSymbolTableRecord
100
AcDbLayerTableRecord
  2
A-FIXT
 70
0
 62
6
  6
Continuous
370
13
390
13
347
21
  0
LAYER
  5
94
330
1
100
AcDbSymbolTableRecord
100
AcDbLayerTableRecord
  2
A-ROOF
 70
0
 62
5
  6
Continuous
370
18
390
13
347
21
  0
LAYER
  5
95
330
1
100
AcDbSymbolTableRecord
100
AcDbLayerTableRecord
  2
A-HTCH
 70
0
 62
9
  6
Continuous
370
9
390
13
347
21
  0
LAYER
  5
96
330
1
100
AcDbSymbolTableRecord
100
AcDbLayerTableRecord
  2
S-FDN
 70
0
 62
1
  6
Continuous
370
35
390
13
347
21
  0
LAYER
  5
97
330
1
100
AcDbSymbolTableRecord
100
AcDbLayerTableRecord
  2
S-BEAM
 70
0
 62
5
  6
Continuous
370
35
390
13
347
21
  0
LAYER
  5
98
330
1
100
AcDbSymbolTableRecord
100
AcDbLayerTableRecord
  2
S-JOIST
 70
0
 62
4
  6
Continuous
370
18
390
13
347
21
  0
LAYER
  5
99
330
1
100
AcDbSymbolTableRecord
100
AcDbLayerTableRecord
  2
S-SWALL
 70
0
 62
2
  6
Continuous
370
50
390
13
347
21
  0
LAYER
  5
9A
330
1
100
AcDbSymbolTableRecord
100
AcDbLayerTableRecord
  2
S-ANNO
 70
0
 62
2
  6
Continuous
370
13
390
13
347
21
  0
LAYER
  5
9B
330
1
100
AcDbSymbolTableRecord
100
AcDbLayerTableRecord
  2
E-SITE
 70
0
 62
3
  6
Continuous
370
35
390
13
347
21
  0
LAYER
  5
9C
330
1
100
AcDbSymbolTableRecord
100
AcDbLayerTableRecord
  2
E-ROAD
 70
0
 62
8
  6
Continuous
370
18
390
13
347
21
  0
LAYER
  5
9D
330
1
100
AcDbSymbolTableRecord
100
AcDbLayerTableRecord
  2
E-PLNT
 70
0
 62
3
  6
Continuous
370
13
390
13
347
21
  0
ENDTAB
  0
TABLE
  2
STYLE
  5
5
330
0
100
AcDbSymbolTable
 70
27
  0
STYLE
  5
29
330
5
100
AcDbSymbolTableRecord
100
AcDbTextStyleTableRecord
  2
Standard
 70
0
 40
0.0
 41
1.0
 50
0.0
 71
0
 42
2.5
  3
txt
  4

  0
STYLE
  5
41
330
5
100
AcDbSymbolTableRecord
100
AcDbTextStyleTableRecord
  2
OpenSans-Light
 70
0
 40
0.0
 41
1.0
 50
0.0
 71
0
 42
2.5
  3
OpenSans-Light.ttf
  4

  0
STYLE
  5
42
330
5
100
AcDbSymbolTableRecord
100
AcDbTextStyleTableRecord
  2
OpenSans-Light-Italic
 70
0
 40
0.0
 41
1.0
 50
0.0
 71
0
 42
2.5
  3
OpenSans-LightItalic.ttf
  4

  0
STYLE
  5
43
330
5
100
AcDbSymbolTableRecord
100
AcDbTextStyleTableRecord
  2
OpenSans
 70
0
 40
0.0
 41
1.0
 50
0.0
 71
0
 42
2.5
  3
OpenSans-Regular.ttf
  4

  0
STYLE
  5
44
330
5
100
AcDbSymbolTableRecord
100
AcDbTextStyleTableRecord
  2
OpenSans-Italic
 70
0
 40
0.0
 41
1.0
 50
0.0
 71
0
 42
2.5
  3
OpenSans-Italic.ttf
  4

  0
STYLE
  5
45
330
5
100
AcDbSymbolTableRecord
100
AcDbTextStyleTableRecord
  2
OpenSans-SemiBold
 70
0
 40
0.0
 41
1.0
 50
0.0
 71
0
 42
2.5
  3
OpenSans-SemiBold.ttf
  4

  0
STYLE
  5
46
330
5
100
AcDbSymbolTableRecord
100
AcDbTextStyleTableRecord
  2
OpenSans-SemiBoldItalic
 70
0
 40
0.0
 41
1.0
 50
0.0
 71
0
 42
2.5
  3
OpenSans-SemiBoldItalic.ttf
  4

  0
STYLE
  5
47
330
5
100
AcDbSymbolTableRecord
100
AcDbTextStyleTableRecord
  2
OpenSans-Bold
 70
0
 40
0.0
 41
1.0
 50
0.0
 71
0
 42
2.5
  3
OpenSans-Bold.ttf
  4

  0
STYLE
  5
48
330
5
100
AcDbSymbolTableRecord
100
AcDbTextStyleTableRecord
  2
OpenSans-BoldItalic
 70
0
 40
0.0
 41
1.0
 50
0.0
 71
0
 42
2.5
  3
OpenSans-BoldItalic.ttf
  4

  0
STYLE
  5
49
330
5
100
AcDbSymbolTableRecord
100
AcDbTextStyleTableRecord
  2
OpenSans-ExtraBold
 70
0
 40
0.0
 41
1.0
 50
0.0
 71
0
 42
2.5
  3
OpenSans-ExtraBold.ttf
  4

  0
STYLE
  5
4A
330
5
100
AcDbSymbolTableRecord
100
AcDbTextStyleTableRecord
  2
OpenSans-ExtraBoldItalic
 70
0
 40
0.0
 41
1.0
 50
0.0
 71
0
 42
2.5
  3
OpenSans-ExtraBoldItalic.ttf
  4

  0
STYLE
  5
4B
330
5
100
AcDbSymbolTableRecord
100
AcDbTextStyleTableRecord
  2
OpenSansCondensed-Bold
 70
0
 40
0.0
 41
1.0
 50
0.0
 71
0
 42
2.5
  3
OpenSansCondensed-Bold.ttf
  4

  0
STYLE
  5
4C
330
5
100
AcDbSymbolTableRecord
100
AcDbTextStyleTableRecord
  2
OpenSansCondensed-Light
 70
0
 40
0.0
 41
1.0
 50
0.0
 71
0
 42
2.5
  3
OpenSansCondensed-Light.ttf
  4

  0
STYLE
  5
4D
330
5
100
AcDbSymbolTableRecord
100
AcDbTextStyleTableRecord
  2
OpenSansCondensed-Italic
 70
0
 40
0.0
 41
1.0
 50
0.0
 71
0
 42
2.5
  3
OpenSansCondensed-LightItalic.ttf
  4

  0
STYLE
  5
4E
330
5
100
AcDbSymbolTableRecord
100
AcDbTextStyleTableRecord
  2
LiberationSans
 70
0
 40
0.0
 41
1.0
 50
0.0
 71
0
 42
2.5
  3
LiberationSans-Regular.ttf
  4

  0
STYLE
  5
4F
330
5
100
AcDbSymbolTableRecord
100
AcDbTextStyleTableRecord
  2
LiberationSans-Bold
 70
0
 40
0.0
 41
1.0
 50
0.0
 71
0
 42
2.5
  3
LiberationSans-Bold.ttf
  4

  0
STYLE
  5
50
330
5
100
AcDbSymbolTableRecord
100
AcDbTextStyleTableRecord
  2
LiberationSans-BoldItalic
 70
0
 40
0.0
 41
1.0
 50
0.0
 71
0
 42
2.5
  3
LiberationSans-BoldItalic.ttf
  4

  0
STYLE
  5
51
330
5
100
AcDbSymbolTableRecord
100
AcDbTextStyleTableRecord
  2
LiberationSans-Italic
 70
0
 40
0.0
 41
1.0
 50
0.0
 71
0
 42
2.5
  3
LiberationSans-Italic.ttf
  4

  0
STYLE
  5
52
330
5
100
AcDbSymbolTableRecord
100
AcDbTextStyleTableRecord
  2
LiberationSerif
 70
0
 40
0.0
 41
1.0
 50
0.0
 71
0
 42
2.5
  3
LiberationSerif-Regular.ttf
  4

  0
STYLE
  5
53
330
5
100
AcDbSymbolTableRecord
100
AcDbTextStyleTableRecord
  2
LiberationSerif-Bold
 70
0
 40
0.0
 41
1.0
 50
0.0
 71
0
 42
2.5
  3
LiberationSerif-Bold.ttf
  4

  0
STYLE
  5
54
330
5
100
AcDbSymbolTableRecord
100
AcDbTextStyleTableRecord
  2
LiberationSerif-BoldItalic
 70
0
 40
0.0
 41
1.0
 50
0.0
 71
0
 42
2.5
  3
LiberationSerif-BoldItalic.ttf
  4

  0
STYLE
  5
55
330
5
100
AcDbSymbolTableRecord
100
AcDbTextStyleTableRecord
  2
LiberationSerif-Italic
 70
0
 40
0.0
 41
1.0
 50
0.0
 71
0
 42
2.5
  3
LiberationSerif-Italic.ttf
  4

  0
STYLE
  5
56
330
5
100
AcDbSymbolTableRecord
100
AcDbTextStyleTableRecord
  2
LiberationMono
 70
0
 40
0.0
 41
1.0
 50
0.0
 71
0
 42
2.5
  3
LiberationMono-Regular.ttf
  4

  0
STYLE
  5
57
330
5
100
AcDbSymbolTableRecord
100
AcDbTextStyleTableRecord
  2
LiberationMono-Bold
 70
0
 40
0.0
 41
1.0
 50
0.0
 71
0
 42
2.5
  3
LiberationMono-Bold.ttf
  4

  0
STYLE
  5
58
330
5
100
AcDbSymbolTableRecord
100
AcDbTextStyleTableRecord
  2
LiberationMono-BoldItalic
 70
0
 40
0.0
 41
1.0
 50
0.0
 71
0
 42
2.5
  3
LiberationMono-BoldItalic.ttf
  4

  0
STYLE
  5
59
330
5
100
AcDbSymbolTableRecord
100
AcDbTextStyleTableRecord
  2
LiberationMono-Italic
 70
0
 40
0.0
 41
1.0
 50
0.0
 71
0
 42
2.5
  3
LiberationMono-Italic.ttf
  4

  0
STYLE
  5
8A
330
5
100
AcDbSymbolTableRecord
100
AcDbTextStyleTableRecord
  2
DIP
 70
0
 40
0.0
 41
1.0
 50
0.0
 71
0
 42
2.5
  3
msgothic.ttc
  4

  0
ENDTAB
  0
TABLE
  2
VIEW
  5
7
330
0
100
AcDbSymbolTable
 70
0
  0
ENDTAB
  0
TABLE
  2
UCS
  5
6
330
0
100
AcDbSymbolTable
 70
0
  0
ENDTAB
  0
TABLE
  2
APPID
  5
3
330
0
100
AcDbSymbolTable
 70
3
  0
APPID
  5
2A
330
3
100
AcDbSymbolTableRecord
100
AcDbRegAppTableRecord
  2
ACAD
 70
0
  0
APPID
  5
24B
330
3
100
AcDbSymbolTableRecord
100
AcDbRegAppTableRecord
  2
HATCHBACKGROUNDCOLOR
 70
0
  0
APPID
  5
24C
330
3
100
AcDbSymbolTableRecord
100
AcDbRegAppTableRecord
  2
EZDXF
 70
0
  0
ENDTAB
  0
TABLE
  2
DIMSTYLE
  5
4
330
0
100
AcDbSymbolTable
 70
12
100
AcDbDimStyleTable
  0
DIMSTYLE
105
2B
330
4
100
AcDbSymbolTableRecord
100
AcDbDimStyleTableRecord
  2
Standard
 70
0
 40
1.0
 41
150.0
 42
200.0
 43
3.75
 44
120.0
 45
0.0
 46
0.0
 47
0.0
 48
0.0
 49
2.5
140
250.0
141
2.5
142
0.0
143
0.03937007874
144
1.0
145
0.0
146
1.0
147
80.0
148
0.0
 69
0
 70
0
 71
0
 72
0
 73
0
 74
0
 75
0
 76
0
 77
1
 78
8
 79
3
170
0
171
3
172
1
173
0
174
0
175
0
176
0
177
0
178
3
179
2
271
0
272
2
273
2
274
3
275
0
276
0
277
2
278
44
279
0
280
0
281
0
282
0
283
0
284
8
285
0
286
0
288
0
289
3
290
0
340
8A
371
-2
372
-2
  0
DIMSTYLE
105
73
330
4
100
AcDbSymbolTableRecord
100
AcDbDimStyleTableRecord
  2
EZDXF
 70
0
 40
1.0
 41
0.175
 42
0.125
 43
3.75
 44
0.375
 45
0.0
 46
0.0
 47
0.0
 48
0.0
 49
2.5
140
0.25
141
2.5
142
0.0
143
0.03937007874
144
100.0
145
0.0
146
0.5
147
0.1
148
0.0
 69
0
 70
0
 71
0
 72
0
 73
0
 74
0
 75
0
 76
0
 77
1
 78
12
 79
3
170
0
171
3
172
1
173
0
174
0
175
0
176
0
177
0
178
0
179
2
271
2
272
2
273
2
274
3
275
0
276
0
277
2
278
46
279
2
280
0
281
0
282
0
283
0
284
8
285
0
286
0
288
1
289
3
290
0
340
4C
342
74
371
-2
372
-2
  0
DIMSTYLE
105
7C
330
4
100
AcDbSymbolTableRecord
100
AcDbDimStyleTableRecord
  2
EZ_M_100_H25_CM
 70
0
 40
1.0
 41
0.25
 42
0.125
 43
3.75
 44
0.375
 45
0.0
 46
0.0
 47
0.0
 48
0.0
 49
2.5
140
0.25
141
2.5
142
0.125
143
0.03937007874
144
100.0
145
0.0
146
0.5
147
0.1
148
0.0
 69
0
 70
0
 71
0
 72
0
 73
0
 74
0
 75
0
 76
0
 77
1
 78
12
 79
3
170
0
171
3
172
1
173
0
174
0
175
0
176
0
177
0
178
0
179
2
271
2
272
2
273
2
274
3
275
0
276
0
277
2
278
46
279
2
280
0
281
0
282
0
283
0
284
8
285
0
286
0
288
1
289
3
290
0
340
4C
371
-2
372
-2
  0
DIMSTYLE
105
7D
330
4
100
AcDbSymbolTableRecord
100
AcDbDimStyleTableRecord
  2
EZ_M_50_H25_CM
 70
0
 40
1.0
 41
0.125
 42
0.0625
 43
3.75
 44
0.1875
 45
0.0
 46
0.0
 47
0.0
 48
0.0
 49
2.5
140
0.125
141
2.5
142
0.0625
143
0.03937007874
144
100.0
145
0.0
146
0.5
147
0.05
148
0.0
 69
0
 70
0
 71
0
 72
0
 73
0
 74
0
 75
0
 76
0
 77
1
 78
12
 79
3
170
0
171
3
172
1
173
0
174
0
175
0
176
0
177
0
178
0
179
2
271
2
272
2
273
2
274
3
275
0
276
0
277
2
278
46
279
2
280
0
281
0
282
0
283
0
284
8
285
0
286
0
288
1
289
3
290
0
340
4C
371
-2
372
-2
  0
DIMSTYLE
105
7E
330
4
100
AcDbSymbolTableRecord
100
AcDbDimStyleTableRecord
  2
EZ_M_25_H25_CM
 70
0
 40
1.0
 41
0.0625
 42
0.03125
 43
3.75
 44
0.09375
 45
0.0
 46
0.0
 47
0.0
 48
0.0
 49
2.5
140
0.0625
141
2.5
142
0.03125
143
0.03937007874
144
100.0
145
0.0
146
0.5
147
0.025
148
0.0
 69
0
 70
0
 71
0
 72
0
 73
0
 74
0
 75
0
 76
0
 77
1
 78
12
 79
3
170
0
171
3
172
1
173
0
174
0
175
0
176
0
177
0
178
0
179
2
271
2
272
2
273
2
274
3
275
0
276
0
277
2
278
46
279
2
280
0
281
0
282
0
283
0
284
8
285
0
286
0
288
1
289
3
290
0
340
4C
371
-2
372
-2
  0
DIMSTYLE
105
7F
330
4
100
AcDbSymbolTableRecord
100
AcDbDimStyleTableRecord
  2
EZ_M_20_H25_CM
 70
0
 40
1.0
 41
0.05
 42
0.025
 43
3.75
 44
0.07500000000000001
 45
0.0
 46
0.0
 47
0.0
 48
0.0
 49
2.5
140
0.05
141
2.5
142
0.025
143
0.03937007874
144
100.0
145
0.0
146
0.5
147
0.020000000000000004
148
0.0
 69
0
 70
0
 71
0
 72
0
 73
0
 74
0
 75
0
 76
0
 77
1
 78
12
 79
3
170
0
171
3
172
1
173
0
174
0
175
0
176
0
177
0
178
0
179
2
271
2
272
2
273
2
274
3
275
0
276
0
277
2
278
46
279
2
280
0
281
0
282
0
283
0
284
8
285
0
286
0
288
1
289
3
290
0
340
4C
371
-2
372
-2
  0
DIMSTYLE
105
80
330
4
100
AcDbSymbolTableRecord
100
AcDbDimStyleTableRecord
  2
EZ_M_10_H25_CM
 70
0
 40
1.0
 41
0.025
 42
0.0125
 43
3.75
 44
0.037500000000000006
 45
0.0
 46
0.0
 47
0.0
 48
0.0
 49
2.5
140
0.025
141
2.5
142
0.0125
143
0.03937007874
144
100.0
145
0.0
146
0.5
147
0.010000000000000002
148
0.0
 69
0
 70
0
 71
0
 72
0
 73
0
 74
0
 75
0
 76
0
 77
1
 78
12
 79
3
170
0
171
3
172
1
173
0
174
0
175
0
176
0
177
0
178
0
179
2
271
2
272
2
273
2
274
3
275
0
276
0
277
2
278
46
279
2
280
0
281
0
282
0
283
0
284
8
285
0
286
0
288
1
289
3
290
0
340
4C
371
-2
372
-2
  0
DIMSTYLE
105
81
330
4
100
AcDbSymbolTableRecord
100
AcDbDimStyleTableRecord
  2
EZ_M_5_H25_CM
 70
0
 40
1.0
 41
0.0125
 42
0.00625
 43
3.75
 44
0.018750000000000003
 45
0.0
 46
0.0
 47
0.0
 48
0.0
 49
2.5
140
0.0125
141
2.5
142
0.00625
143
0.03937007874
144
100.0
145
0.0
146
0.5
147
0.005000000000000001
148
0.0
 69
0
 70
0
 71
0
 72
0
 73
0
 74
0
 75
0
 76
0
 77
1
 78
12
 79
3
170
0
171
3
172
1
173
0
174
0
175
0
176
0
177
0
178
0
179
2
271
2
272
2
273
2
274
3
275
0
276
0
277
2
278
46
279
2
280
0
281
0
282
0
283
0
284
8
285
0
286
0
288
1
289
3
290
0
340
4C
371
-2
372
-2
  0
DIMSTYLE
105
82
330
4
100
AcDbSymbolTableRecord
100
AcDbDimStyleTableRecord
  2
EZ_M_1_H25_CM
 70
0
 40
1.0
 41
0.0025
 42
0.00125
 43
3.75
 44
0.00375
 45
0.0
 46
0.0
 47
0.0
 48
0.0
 49
2.5
140
0.0025
141
2.5
142
0.00125
143
0.03937007874
144
100.0
145
0.0
146
0.5
147
0.001
148
0.0
 69
0
 70
0
 71
0
 72
0
 73
0
 74
0
 75
0
 76
0
 77
1
 78
12
 79
3
170
0
171
3
172
1
173
0
174
0
175
0
176
0
177
0
178
0
179
2
271
2
272
2
273
2
274
3
275
0
276
0
277
2
278
46
279
2
280
0
281
0
282
0
283
0
284
8
285
0
286
0
288
1
289
3
290
0
340
4C
371
-2
372
-2
  0
DIMSTYLE
105
83
330
4
100
AcDbSymbolTableRecord
100
AcDbDimStyleTableRecord
  2
EZ_RADIUS
 70
0
 40
1.0
 41
0.25
 42
0.125
 43
3.75
 44
0.375
 45
0.0
 46
0.0
 47
0.0
 48
0.0
 49
2.5
140
0.25
141
0.0
142
0.0
143
0.03937007874
144
100.0
145
0.0
146
0.5
147
0.1
148
0.0
 69
0
 70
0
 71
0
 72
0
 73
0
 74
0
 75
0
 76
0
 77
1
 78
12
 79
3
170
0
171
3
172
0
173
0
174
0
175
0
176
0
177
0
178
0
179
2
271
2
272
2
273
2
274
3
275
0
276
0
277
2
278
46
279
1
280
0
281
0
282
0
283
0
284
8
285
0
286
0
288
1
289
3
290
0
340
4C
342
84
371
-2
372
-2
  0
DIMSTYLE
105
88
330
4
100
AcDbSymbolTableRecord
100
AcDbDimStyleTableRecord
  2
EZ_RADIUS_INSIDE
 70
0
 40
1.0
 41
0.25
 42
0.125
 43
3.75
 44
0.375
 45
0.0
 46
0.0
 47
0.0
 48
0.0
 49
2.5
140
0.25
141
0.0
142
0.0
143
0.03937007874
144
100.0
145
0.0
146
0.5
147
0.1
148
0.0
 69
0
 70
0
 71
0
 72
0
 73
0
 74
0
 75
0
 76
0
 77
0
 78
12
 79
3
170
0
171
3
172
0
173
0
174
1
175
0
176
0
177
0
178
0
179
2
271
2
272
2
273
2
274
3
275
0
276
0
277
2
278
46
279
0
280
0
281
0
282
0
283
0
284
8
285
0
286
0
288
1
289
0
290
0
340
4C
342
84
371
-2
372
-2
  0
DIMSTYLE
105
89
330
4
100
AcDbSymbolTableRecord
100
AcDbDimStyleTableRecord
  2
EZ_CURVED
 70
0
 40
1.0
 41
0.25
 42
0.125
 43
3.75
 44
0.375
 45
0.0
 46
0.0
 47
0.0
 48
0.0
 49
2.5
140
0.25
141
2.5
142
0.0
143
0.03937007874
144
100.0
145
0.0
146
0.5
147
0.1
148
0.0
 69
0
 70
0
 71
0
 72
0
 73
0
 74
0
 75
0
 76
0
 77
1
 78
12
 79
2
 90
2
170
0
171
3
172
1
173
0
174
0
175
0
176
0
177
0
178
0
179
2
271
2
272
2
273
2
274
3
275
0
276
0
277
2
278
46
279
2
280
0
281
0
282
0
283
0
284
8
285
0
286
0
288
1
289
3
290
0
340
4C
371
-2
372
-2
  0
ENDTAB
  0
TABLE
  2
BLOCK_RECORD
  5
9
330
0
100
AcDbSymbolTable
 70
20
  0
BLOCK_RECORD
  5
17
330
9
100
AcDbSymbolTableRecord
100
AcDbBlockTableRecord
  2
*Model_Space
340
1A
 70
0
280
1
281
0
  0
BLOCK_RECORD
  5
1B
330
9
100
AcDbSymbolTableRecord
100
AcDbBlockTableRecord
  2
*Paper_Space
340
1E
 70
0
280
1
281
0
  0
BLOCK_RECORD
  5
74
330
9
100
AcDbSymbolTableRecord
100
AcDbBlockTableRecord
  2
_ARCHTICK
340
0
 70
0
280
1
281
0
  0
BLOCK_RECORD
  5
78
330
9
100
AcDbSymbolTableRecord
100
AcDbBlockTableRecord
  2
_CLOSEDFILLED
340
0
 70
0
280
1
281
0
  0
BLOCK_RECORD
  5
84
330
9
100
AcDbSymbolTableRecord
100
AcDbBlockTableRecord
  2
_CLOSEDBLANK
340
0
 70
0
280
1
281
0
  0
BLOCK_RECORD
  5
D5
330
9
100
AcDbSymbolTableRecord
100
AcDbBlockTableRecord
  2
*D1
340
0
 70
0
280
1
281
0
  0
BLOCK_RECORD
  5
E4
330
9
100
AcDbSymbolTableRecord
100
AcDbBlockTableRecord
  2
*D2
340
0
 70
0
280
1
281
0
  0
BLOCK_RECORD
  5
F3
330
9
100
AcDbSymbolTableRecord
100
AcDbBlockTableRecord
  2
*D3
340
0
 70
0
280
1
281
0
  0
BLOCK_RECORD
  5
102
330
9
100
AcDbSymbolTableRecord
100
AcDbBlockTableRecord
  2
*D4
340
0
 70
0
280
1
281
0
  0
BLOCK_RECORD
  5
111
330
9
100
AcDbSymbolTableRecord
100
AcDbBlockTableRecord
  2
*D5
340
0
 70
0
280
1
281
0
  0
BLOCK_RECORD
  5
120
330
9
100
AcDbSymbolTableRecord
100
AcDbBlockTableRecord
  2
*D6
340
0
 70
0
280
1
281
0
  0
BLOCK_RECORD
  5
12F
330
9
100
AcDbSymbolTableRecord
100
AcDbBlockTableRecord
  2
*D7
340
0
 70
0
280
1
281
0
  0
BLOCK_RECORD
  5
13E
330
9
100
AcDbSymbolTableRecord
100
AcDbBlockTableRecord
  2
*D8
340
0
 70
0
280
1
281
0
  0
BLOCK_RECORD
  5
14D
330
9
100
AcDbSymbolTableRecord
100
AcDbBlockTableRecord
  2
*D9
340
0
 70
0
280
1
281
0
  0
BLOCK_RECORD
  5
1A5
330
9
100
AcDbSymbolTableRecord
100
AcDbBlockTableRecord
  2
*D10
340
0
 70
0
280
1
281
0
  0
BLOCK_RECORD
  5
1B4
330
9
100
AcDbSymbolTableRecord
100
AcDbBlockTableRecord
  2
*D11
340
0
 70
0
280
1
281
0
  0
BLOCK_RECORD
  5
1C3
330
9
100
AcDbSymbolTableRecord
100
AcDbBlockTableRecord
  2
*D12
340
0
 70
0
280
1
281
0
  0
BLOCK_RECORD
  5
1D2
330
9
100
AcDbSymbolTableRecord
100
AcDbBlockTableRecord
  2
*D13
340
0
 70
0
280
1
281
0
  0
BLOCK_RECORD
  5
1E1
330
9
100
AcDbSymbolTableRecord
100
AcDbBlockTableRecord
  2
*D14
340
0
 70
0
280
1
281
0
  0
BLOCK_RECORD
  5
1F0
330
9
100
AcDbSymbolTableRecord
100
AcDbBlockTableRecord
  2
*D15
340
0
 70
0
280
1
281
0
  0
ENDTAB
  0
ENDSEC
  0
SECTION
  2
BLOCKS
  0
BLOCK
  5
18
330
17
100
AcDbEntity
  8
0
100
AcDbBlockBegin
  2
*Model_Space
 70
0
 10
0.0
 20
0.0
 30
0.0
  3
*Model_Space
  1

  0
ENDBLK
  5
19
330
17
100
AcDbEntity
  8
0
100
AcDbBlockEnd
  0
BLOCK
  5
1C
330
1B
100
AcDbEntity
  8
0
100
AcDbBlockBegin
  2
*Paper_Space
 70
0
 10
0.0
 20
0.0
 30
0.0
  3
*Paper_Space
  1

  0
ENDBLK
  5
1D
330
1B
100
AcDbEntity
  8
0
100
AcDbBlockEnd
  0
BLOCK
  5
75
330
74
100
AcDbEntity
  8
0
100
AcDbBlockBegin
  2
_ARCHTICK
 70
0
 10
0.0
 20
0.0
 30
0.0
  3
_ARCHTICK
  1

  0
LWPOLYLINE
  5
77
330
74
100
AcDbEntity
  8
0
  6
BYBLOCK
 62
0
100
AcDbPolyline
 90
2
 70
0
 43
0.15
 10
-0.5
 20
-0.5
 10
0.5
 20
0.5
  0
ENDBLK
  5
76
330
74
100
AcDbEntity
  8
0
100
AcDbBlockEnd
  0
BLOCK
  5
79
330
78
100
AcDbEntity
  8
0
100
AcDbBlockBegin
  2
_CLOSEDFILLED
 70
0
 10
0.0
 20
0.0
 30
0.0
  3
_CLOSEDFILLED
  1

  0
SOLID
  5
7B
330
78
100
AcDbEntity
  8
0
  6
BYBLOCK
 62
0
100
AcDbTrace
 10
-1.0
 20
0.16439898372402537
 30
0.0
 11
0.0
 21
0.0
 31
0.0
 12
-1.0
 22
-0.16439898372402537
 32
0.0
 13
-1.0
 23
-0.16439898372402537
 33
0.0
  0
ENDBLK
  5
7A
330
78
100
AcDbEntity
  8
0
100
AcDbBlockEnd
  0
BLOCK
  5
85
330
84
100
AcDbEntity
  8
0
100
AcDbBlockBegin
  2
_CLOSEDBLANK
 70
0
 10
0.0
 20
0.0
 30
0.0
  3
_CLOSEDBLANK
  1

  0
LWPOLYLINE
  5
87
330
84
100
AcDbEntity
  8
0
  6
BYBLOCK
 62
0
100
AcDbPolyline
 90
3
 70
1
 10
-1.0
 20
0.16439898372402537
 10
0.0
 20
0.0
 10
-1.0
 20
-0.16439898372402537
  0
ENDBLK
  5
86
330
84
100
AcDbEntity
  8
0
100
AcDbBlockEnd
  0
BLOCK
  5
D6
330
D5
100
AcDbEntity
  8
0
100
AcDbBlockBegin
  2
*D1
 70
1
 10
0.0
 20
0.0
 30
0.0
  3
*D1
  1

  0
LINE
  5
D8
330
D5
100
AcDbEntity
  8
0
100
AcDbLine
 10
7380.125
 20
0.0
 30
0.0
 11
8280.375
 21
0.0
 31
0.0
  0
LINE
  5
D9
330
D5
100
AcDbEntity
  8
0
100
AcDbLine
 10
7380.125
 20
500.0
 30
0.0
 11
8280.375
 21
500.0
 31
0.0
  0
INSERT
  5
DA
330
D5
100
AcDbEntity
  8
A-DIM
100
AcDbBlockReference
  2
_ARCHTICK
 10
8280.0
 20
0.0
 30
0.0
 41
0.175
 42
0.175
 50
270.0
  0
INSERT
  5
DC
330
D5
100
AcDbEntity
  8
A-DIM
100
AcDbBlockReference
  2
_ARCHTICK
 10
8280.0
 20
500.0
 30
0.0
 41
0.175
 42
0.175
 50
90.0
  0
LINE
  5
DE
330
D5
100
AcDbEntity
  8
0
100
AcDbLine
 10
8280.0
 20
0.0
 30
0.0
 11
8280.0
 21
500.0
 31
0.0
  0
MTEXT
  5
DF
330
D5
100
AcDbEntity
  8
A-DIM
100
AcDbMText
 10
8279.775
 20
250.0
 30
0.0
 40
0.25
 71
5
  1
50000
  7
OpenSansCondensed-Light
 50
90.0
  0
POINT
  5
E0
330
D5
100
AcDbEntity
  8
Defpoints
100
AcDbPoint
 10
8280.0
 20
0.0
 30
0.0
  0
POINT
  5
E1
330
D5
100
AcDbEntity
  8
Defpoints
100
AcDbPoint
 10
7380.0
 20
0.0
 30
0.0
  0
POINT
  5
E2
330
D5
100
AcDbEntity
  8
Defpoints
100
AcDbPoint
 10
7380.0
 20
500.0
 30
0.0
  0
ENDBLK
  5
D7
330
D5
100
AcDbEntity
  8
0
100
AcDbBlockEnd
  0
BLOCK
  5
E5
330
E4
100
AcDbEntity
  8
0
100
AcDbBlockBegin
  2
*D2
 70
1
 10
0.0
 20
0.0
 30
0.0
  3
*D2
  1

  0
LINE
  5
E7
330
E4
100
AcDbEntity
  8
0
100
AcDbLine
 10
7380.125
 20
500.0
 30
0.0
 11
8280.375
 21
500.0
 31
0.0
  0
LINE
  5
E8
330
E4
100
AcDbEntity
  8
0
100
AcDbLine
 10
7380.125
 20
2900.0
 30
0.0
 11
8280.375
 21
2900.0
 31
0.0
  0
INSERT
  5
E9
330
E4
100
AcDbEntity
  8
A-DIM
100
AcDbBlockReference
  2
_ARCHTICK
 10
8280.0
 20
500.0
 30
0.0
 41
0.175
 42
0.175
 50
270.0
  0
INSERT
  5
EB
330
E4
100
AcDbEntity
  8
A-DIM
100
AcDbBlockReference
  2
_ARCHTICK
 10
8280.0
 20
2900.0
 30
0.0
 41
0.175
 42
0.175
 50
90.0
  0
LINE
  5
ED
330
E4
100
AcDbEntity
  8
0
100
AcDbLine
 10
8280.0
 20
500.0
 30
0.0
 11
8280.0
 21
2900.0
 31
0.0
  0
MTEXT
  5
EE
330
E4
100
AcDbEntity
  8
A-DIM
100
AcDbMText
 10
8279.775
 20
1700.0
 30
0.0
 40
0.25
 71
5
  1
240000
  7
OpenSansCondensed-Light
 50
90.0
  0
POINT
  5
EF
330
E4
100
AcDbEntity
  8
Defpoints
100
AcDbPoint
 10
8280.0
 20
500.0
 30
0.0
  0
POINT
  5
F0
330
E4
100
AcDbEntity
  8
Defpoints
100
AcDbPoint
 10
7380.0
 20
500.0
 30
0.0
  0
POINT
  5
F1
330
E4
100
AcDbEntity
  8
Defpoints
100
AcDbPoint
 10
7380.0
 20
2900.0
 30
0.0
  0
ENDBLK
  5
E6
330
E4
100
AcDbEntity
  8
0
100
AcDbBlockEnd
  0
BLOCK
  5
F4
330
F3
100
AcDbEntity
  8
0
100
AcDbBlockBegin
  2
*D3
 70
1
 10
0.0
 20
0.0
 30
0.0
  3
*D3
  1

  0
LINE
  5
F6
330
F3
100
AcDbEntity
  8
0
100
AcDbLine
 10
7380.125
 20
2900.0
 30
0.0
 11
8280.375
 21
2900.0
 31
0.0
  0
LINE
  5
F7
330
F3
100
AcDbEntity
  8
0
100
AcDbLine
 10
7380.125
 20
3400.0
 30
0.0
 11
8280.375
 21
3400.0
 31
0.0
  0
INSERT
  5
F8
330
F3
100
AcDbEntity
  8
A-DIM
100
AcDbBlockReference
  2
_ARCHTICK
 10
8280.0
 20
2900.0
 30
0.0
 41
0.175
 42
0.175
 50
270.0
  0
INSERT
  5
FA
330
F3
100
AcDbEntity
  8
A-DIM
100
AcDbBlockReference
  2
_ARCHTICK
 10
8280.0
 20
3400.0
 30
0.0
 41
0.175
 42
0.175
 50
90.0
  0
LINE
  5
FC
330
F3
100
AcDbEntity
  8
0
100
AcDbLine
 10
8280.0
 20
2900.0
 30
0.0
 11
8280.0
 21
3400.0
 31
0.0
  0
MTEXT
  5
FD
330
F3
100
AcDbEntity
  8
A-DIM
100
AcDbMText
 10
8279.775
 20
3150.0
 30
0.0
 40
0.25
 71
5
  1
50000
  7
OpenSansCondensed-Light
 50
90.0
  0
POINT
  5
FE
330
F3
100
AcDbEntity
  8
Defpoints
100
AcDbPoint
 10
8280.0
 20
2900.0
 30
0.0
  0
POINT
  5
FF
330
F3
100
AcDbEntity
  8
Defpoints
100
AcDbPoint
 10
7380.0
 20
2900.0
 30
0.0
  0
POINT
  5
100
330
F3
100
AcDbEntity
  8
Defpoints
100
AcDbPoint
 10
7380.0
 20
3400.0
 30
0.0
  0
ENDBLK
  5
F5
330
F3
100
AcDbEntity
  8
0
100
AcDbBlockEnd
  0
BLOCK
  5
103
330
102
100
AcDbEntity
  8
0
100
AcDbBlockBegin
  2
*D4
 70
1
 10
0.0
 20
0.0
 30
0.0
  3
*D4
  1

  0
LINE
  5
105
330
102
100
AcDbEntity
  8
0
100
AcDbLine
 10
7380.125
 20
3400.0
 30
0.0
 11
8280.375
 21
3400.0
 31
0.0
  0
LINE
  5
106
330
102
100
AcDbEntity
  8
0
100
AcDbLine
 10
7380.125
 20
5800.0
 30
0.0
 11
8280.375
 21
5800.0
 31
0.0
  0
INSERT
  5
107
330
102
100
AcDbEntity
  8
A-DIM
100
AcDbBlockReference
  2
_ARCHTICK
 10
8280.0
 20
3400.0
 30
0.0
 41
0.175
 42
0.175
 50
270.0
  0
INSERT
  5
109
330
102
100
AcDbEntity
  8
A-DIM
100
AcDbBlockReference
  2
_ARCHTICK
 10
8280.0
 20
5800.0
 30
0.0
 41
0.175
 42
0.175
 50
90.0
  0
LINE
  5
10B
330
102
100
AcDbEntity
  8
0
100
AcDbLine
 10
8280.0
 20
3400.0
 30
0.0
 11
8280.0
 21
5800.0
 31
0.0
  0
MTEXT
  5
10C
330
102
100
AcDbEntity
  8
A-DIM
100
AcDbMText
 10
8279.775
 20
4600.0
 30
0.0
 40
0.25
 71
5
  1
240000
  7
OpenSansCondensed-Light
 50
90.0
  0
POINT
  5
10D
330
102
100
AcDbEntity
  8
Defpoints
100
AcDbPoint
 10
8280.0
 20
3400.0
 30
0.0
  0
POINT
  5
10E
330
102
100
AcDbEntity
  8
Defpoints
100
AcDbPoint
 10
7380.0
 20
3400.0
 30
0.0
  0
POINT
  5
10F
330
102
100
AcDbEntity
  8
Defpoints
100
AcDbPoint
 10
7380.0
 20
5800.0
 30
0.0
  0
ENDBLK
  5
104
330
102
100
AcDbEntity
  8
0
100
AcDbBlockEnd
  0
BLOCK
  5
112
330
111
100
AcDbEntity
  8
0
100
AcDbBlockBegin
  2
*D5
 70
1
 10
0.0
 20
0.0
 30
0.0
  3
*D5
  1

  0
LINE
  5
114
330
111
100
AcDbEntity
  8
0
100
AcDbLine
 10
7380.125
 20
5800.0
 30
0.0
 11
8280.375
 21
5800.0
 31
0.0
  0
LINE
  5
115
330
111
100
AcDbEntity
  8
0
100
AcDbLine
 10
7380.125
 20
6200.0
 30
0.0
 11
8280.375
 21
6200.0
 31
0.0
  0
INSERT
  5
116
330
111
100
AcDbEntity
  8
A-DIM
100
AcDbBlockReference
  2
_ARCHTICK
 10
8280.0
 20
5800.0
 30
0.0
 41
0.175
 42
0.175
 50
270.0
  0
INSERT
  5
118
330
111
100
AcDbEntity
  8
A-DIM
100
AcDbBlockReference
  2
_ARCHTICK
 10
8280.0
 20
6200.0
 30
0.0
 41
0.175
 42
0.175
 50
90.0
  0
LINE
  5
11A
330
111
100
AcDbEntity
  8
0
100
AcDbLine
 10
8280.0
 20
5800.0
 30
0.0
 11
8280.0
 21
6200.0
 31
0.0
  0
MTEXT
  5
11B
330
111
100
AcDbEntity
  8
A-DIM
100
AcDbMText
 10
8279.775
 20
6000.0
 30
0.0
 40
0.25
 71
5
  1
40000
  7
OpenSansCondensed-Light
 50
90.0
  0
POINT
  5
11C
330
111
100
AcDbEntity
  8
Defpoints
100
AcDbPoint
 10
8280.0
 20
5800.0
 30
0.0
  0
POINT
  5
11D
330
111
100
AcDbEntity
  8
Defpoints
100
AcDbPoint
 10
7380.0
 20
5800.0
 30
0.0
  0
POINT
  5
11E
330
111
100
AcDbEntity
  8
Defpoints
100
AcDbPoint
 10
7380.0
 20
6200.0
 30
0.0
  0
ENDBLK
  5
113
330
111
100
AcDbEntity
  8
0
100
AcDbBlockEnd
  0
BLOCK
  5
121
330
120
100
AcDbEntity
  8
0
100
AcDbBlockBegin
  2
*D6
 70
1
 10
0.0
 20
0.0
 30
0.0
  3
*D6
  1

  0
LINE
  5
123
330
120
100
AcDbEntity
  8
0
100
AcDbLine
 10
7380.125
 20
500.0
 30
0.0
 11
9680.375
 21
500.0
 31
0.0
  0
LINE
  5
124
330
120
100
AcDbEntity
  8
0
100
AcDbLine
 10
7380.125
 20
3400.0
 30
0.0
 11
9680.375
 21
3400.0
 31
0.0
  0
INSERT
  5
125
330
120
100
AcDbEntity
  8
A-DIM
100
AcDbBlockReference
  2
_ARCHTICK
 10
9680.0
 20
500.0
 30
0.0
 41
0.175
 42
0.175
 50
270.0
  0
INSERT
  5
127
330
120
100
AcDbEntity
  8
A-DIM
100
AcDbBlockReference
  2
_ARCHTICK
 10
9680.0
 20
3400.0
 30
0.0
 41
0.175
 42
0.175
 50
90.0
  0
LINE
  5
129
330
120
100
AcDbEntity
  8
0
100
AcDbLine
 10
9680.0
 20
500.0
 30
0.0
 11
9680.0
 21
3400.0
 31
0.0
  0
MTEXT
  5
12A
330
120
100
AcDbEntity
  8
A-DIM
100
AcDbMText
 10
9679.775
 20
1950.0
 30
0.0
 40
0.25
 71
5
  1
290000
  7
OpenSansCondensed-Light
 50
90.0
  0
POINT
  5
12B
330
120
100
AcDbEntity
  8
Defpoints
100
AcDbPoint
 10
9680.0
 20
500.0
 30
0.0
  0
POINT
  5
12C
330
120
100
AcDbEntity
  8
Defpoints
100
AcDbPoint
 10
7380.0
 20
500.0
 30
0.0
  0
POINT
  5
12D
330
120
100
AcDbEntity
  8
Defpoints
100
AcDbPoint
 10
7380.0
 20
3400.0
 30
0.0
  0
ENDBLK
  5
122
330
120
100
AcDbEntity
  8
0
100
AcDbBlockEnd
  0
BLOCK
  5
130
330
12F
100
AcDbEntity
  8
0
100
AcDbBlockBegin
  2
*D7
 70
1
 10
0.0
 20
0.0
 30
0.0
  3
*D7
  1

  0
LINE
  5
132
330
12F
100
AcDbEntity
  8
0
100
AcDbLine
 10
7380.125
 20
0.0
 30
0.0
 11
11080.375
 21
0.0
 31
0.0
  0
LINE
  5
133
330
12F
100
AcDbEntity
  8
0
100
AcDbLine
 10
7380.125
 20
6200.0
 30
0.0
 11
11080.375
 21
6200.0
 31
0.0
  0
INSERT
  5
134
330
12F
100
AcDbEntity
  8
A-DIM
100
AcDbBlockReference
  2
_ARCHTICK
 10
11080.0
 20
0.0
 30
0.0
 41
0.175
 42
0.175
 50
270.0
  0
INSERT
  5
136
330
12F
100
AcDbEntity
  8
A-DIM
100
AcDbBlockReference
  2
_ARCHTICK
 10
11080.0
 20
6200.0
 30
0.0
 41
0.175
 42
0.175
 50
90.0
  0
LINE
  5
138
330
12F
100
AcDbEntity
  8
0
100
AcDbLine
 10
11080.0
 20
0.0
 30
0.0
 11
11080.0
 21
6200.0
 31
0.0
  0
MTEXT
  5
139
330
12F
100
AcDbEntity
  8
A-DIM
100
AcDbMText
 10
11079.775
 20
3100.0
 30
0.0
 40
0.25
 71
5
  1
620000
  7
OpenSansCondensed-Light
 50
90.0
  0
POINT
  5
13A
330
12F
100
AcDbEntity
  8
Defpoints
100
AcDbPoint
 10
11080.0
 20
0.0
 30
0.0
  0
POINT
  5
13B
330
12F
100
AcDbEntity
  8
Defpoints
100
AcDbPoint
 10
7380.0
 20
0.0
 30
0.0
  0
POINT
  5
13C
330
12F
100
AcDbEntity
  8
Defpoints
100
AcDbPoint
 10
7380.0
 20
6200.0
 30
0.0
  0
ENDBLK
  5
131
330
12F
100
AcDbEntity
  8
0
100
AcDbBlockEnd
  0
BLOCK
  5
13F
330
13E
100
AcDbEntity
  8
0
100
AcDbBlockBegin
  2
*D8
 70
1
 10
0.0
 20
0.0
 30
0.0
  3
*D8
  1

  0
LINE
  5
141
330
13E
100
AcDbEntity
  8
0
100
AcDbLine
 10
7380.125
 20
0.0
 30
0.0
 11
12480.375
 21
0.0
 31
0.0
  0
LINE
  5
142
330
13E
100
AcDbEntity
  8
0
100
AcDbLine
 10
7380.125
 20
7474.0
 30
0.0
 11
12480.375
 21
7474.0
 31
0.0
  0
INSERT
  5
143
330
13E
100
AcDbEntity
  8
A-DIM
100
AcDbBlockReference
  2
_ARCHTICK
 10
12480.0
 20
0.0
 30
0.0
 41
0.175
 42
0.175
 50
270.0
  0
INSERT
  5
145
330
13E
100
AcDbEntity
  8
A-DIM
100
AcDbBlockReference
  2
_ARCHTICK
 10
12480.0
 20
7474.0
 30
0.0
 41
0.175
 42
0.175
 50
90.0
  0
LINE
  5
147
330
13E
100
AcDbEntity
  8
0
100
AcDbLine
 10
12480.0
 20
0.0
 30
0.0
 11
12480.0
 21
7474.0
 31
0.0
  0
MTEXT
  5
148
330
13E
100
AcDbEntity
  8
A-DIM
100
AcDbMText
 10
12479.775
 20
3737.0
 30
0.0
 40
0.25
 71
5
  1
747400
  7
OpenSansCondensed-Light
 50
90.0
  0
POINT
  5
149
330
13E
100
AcDbEntity
  8
Defpoints
100
AcDbPoint
 10
12480.0
 20
0.0
 30
0.0
  0
POINT
  5
14A
330
13E
100
AcDbEntity
  8
Defpoints
100
AcDbPoint
 10
7380.0
 20
0.0
 30
0.0
  0
POINT
  5
14B
330
13E
100
AcDbEntity
  8
Defpoints
100
AcDbPoint
 10
7380.0
 20
7474.0
 30
0.0
  0
ENDBLK
  5
140
330
13E
100
AcDbEntity
  8
0
100
AcDbBlockEnd
  0
BLOCK
  5
14E
330
14D
100
AcDbEntity
  8
0
100
AcDbBlockBegin
  2
*D9
 70
1
 10
0.0
 20
0.0
 30
0.0
  3
*D9
  1

  0
LINE
  5
150
330
14D
100
AcDbEntity
  8
0
100
AcDbLine
 10
0.0
 20
-0.125
 30
0.0
 11
0.0
 21
-1600.375
 31
0.0
  0
LINE
  5
151
330
14D
100
AcDbEntity
  8
0
100
AcDbLine
 10
7280.0
 20
-0.125
 30
0.0
 11
7280.0
 21
-1600.375
 31
0.0
  0
INSERT
  5
152
330
14D
100
AcDbEntity
  8
A-DIM
100
AcDbBlockReference
  2
_ARCHTICK
 10
0.0
 20
-1600.0
 30
0.0
 41
0.175
 42
0.175
 50
180.0
  0
INSERT
  5
154
330
14D
100
AcDbEntity
  8
A-DIM
100
AcDbBlockReference
  2
_ARCHTICK
 10
7280.0
 20
-1600.0
 30
0.0
 41
0.175
 42
0.175
  0
LINE
  5
156
330
14D
100
AcDbEntity
  8
0
100
AcDbLine
 10
0.0
 20
-1600.0
 30
0.0
 11
7280.0
 21
-1600.0
 31
0.0
  0
MTEXT
  5
157
330
14D
100
AcDbEntity
  8
A-DIM
100
AcDbMText
 10
3640.0
 20
-1599.775
 30
0.0
 40
0.25
 71
5
  1
728000
  7
OpenSansCondensed-Light
  0
POINT
  5
158
330
14D
100
AcDbEntity
  8
Defpoints
100
AcDbPoint
 10
0.0
 20
-1600.0
 30
0.0
  0
POINT
  5
159
330
14D
100
AcDbEntity
  8
Defpoints
100
AcDbPoint
 10
0.0
 20
0.0
 30
0.0
  0
POINT
  5
15A
330
14D
100
AcDbEntity
  8
Defpoints
100
AcDbPoint
 10
7280.0
 20
0.0
 30
0.0
  0
ENDBLK
  5
14F
330
14D
100
AcDbEntity
  8
0
100
AcDbBlockEnd
  0
BLOCK
  5
1A6
330
1A5
100
AcDbEntity
  8
0
100
AcDbBlockBegin
  2
*D10
 70
1
 10
0.0
 20
0.0
 30
0.0
  3
*D10
  1

  0
LINE
  5
1A8
330
1A5
100
AcDbEntity
  8
0
100
AcDbLine
 10
26700.125
 20
0.0
 30
0.0
 11
27600.375
 21
0.0
 31
0.0
  0
LINE
  5
1A9
330
1A5
100
AcDbEntity
  8
0
100
AcDbLine
 10
26700.125
 20
500.0
 30
0.0
 11
27600.375
 21
500.0
 31
0.0
  0
INSERT
  5
1AA
330
1A5
100
AcDbEntity
  8
A-DIM
100
AcDbBlockReference
  2
_ARCHTICK
 10
27600.0
 20
0.0
 30
0.0
 41
0.175
 42
0.175
 50
270.0
  0
INSERT
  5
1AC
330
1A5
100
AcDbEntity
  8
A-DIM
100
AcDbBlockReference
  2
_ARCHTICK
 10
27600.0
 20
500.0
 30
0.0
 41
0.175
 42
0.175
 50
90.0
  0
LINE
  5
1AE
330
1A5
100
AcDbEntity
  8
0
100
AcDbLine
 10
27600.0
 20
0.0
 30
0.0
 11
27600.0
 21
500.0
 31
0.0
  0
MTEXT
  5
1AF
330
1A5
100
AcDbEntity
  8
A-DIM
100
AcDbMText
 10
27599.775
 20
250.0
 30
0.0
 40
0.25
 71
5
  1
50000
  7
OpenSansCondensed-Light
 50
90.0
  0
POINT
  5
1B0
330
1A5
100
AcDbEntity
  8
Defpoints
100
AcDbPoint
 10
27600.0
 20
0.0
 30
0.0
  0
POINT
  5
1B1
330
1A5
100
AcDbEntity
  8
Defpoints
100
AcDbPoint
 10
26700.0
 20
0.0
 30
0.0
  0
POINT
  5
1B2
330
1A5
100
AcDbEntity
  8
Defpoints
100
AcDbPoint
 10
26700.0
 20
500.0
 30
0.0
  0
ENDBLK
  5
1A7
330
1A5
100
AcDbEntity
  8
0
100
AcDbBlockEnd
  0
BLOCK
  5
1B5
330
1B4
100
AcDbEntity
  8
0
100
AcDbBlockBegin
  2
*D11
 70
1
 10
0.0
 20
0.0
 30
0.0
  3
*D11
  1

  0
LINE
  5
1B7
330
1B4
100
AcDbEntity
  8
0
100
AcDbLine
 10
26700.125
 20
500.0
 30
0.0
 11
27600.375
 21
500.0
 31
0.0
  0
LINE
  5
1B8
330
1B4
100
AcDbEntity
  8
0
100
AcDbLine
 10
26700.125
 20
2900.0
 30
0.0
 11
27600.375
 21
2900.0
 31
0.0
  0
INSERT
  5
1B9
330
1B4
100
AcDbEntity
  8
A-DIM
100
AcDbBlockReference
  2
_ARCHTICK
 10
27600.0
 20
500.0
 30
0.0
 41
0.175
 42
0.175
 50
270.0
  0
INSERT
  5
1BB
330
1B4
100
AcDbEntity
  8
A-DIM
100
AcDbBlockReference
  2
_ARCHTICK
 10
27600.0
 20
2900.0
 30
0.0
 41
0.175
 42
0.175
 50
90.0
  0
LINE
  5
1BD
330
1B4
100
AcDbEntity
  8
0
100
AcDbLine
 10
27600.0
 20
500.0
 30
0.0
 11
27600.0
 21
2900.0
 31
0.0
  0
MTEXT
  5
1BE
330
1B4
100
AcDbEntity
  8
A-DIM
100
AcDbMText
 10
27599.775
 20
1700.0
 30
0.0
 40
0.25
 71
5
  1
240000
  7
OpenSansCondensed-Light
 50
90.0
  0
POINT
  5
1BF
330
1B4
100
AcDbEntity
  8
Defpoints
100
AcDbPoint
 10
27600.0
 20
500.0
 30
0.0
  0
POINT
  5
1C0
330
1B4
100
AcDbEntity
  8
Defpoints
100
AcDbPoint
 10
26700.0
 20
500.0
 30
0.0
  0
POINT
  5
1C1
330
1B4
100
AcDbEntity
  8
Defpoints
100
AcDbPoint
 10
26700.0
 20
2900.0
 30
0.0
  0
ENDBLK
  5
1B6
330
1B4
100
AcDbEntity
  8
0
100
AcDbBlockEnd
  0
BLOCK
  5
1C4
330
1C3
100
AcDbEntity
  8
0
100
AcDbBlockBegin
  2
*D12
 70
1
 10
0.0
 20
0.0
 30
0.0
  3
*D12
  1

  0
LINE
  5
1C6
330
1C3
100
AcDbEntity
  8
0
100
AcDbLine
 10
26700.125
 20
2900.0
 30
0.0
 11
27600.375
 21
2900.0
 31
0.0
  0
LINE
  5
1C7
330
1C3
100
AcDbEntity
  8
0
100
AcDbLine
 10
26700.125
 20
3400.0
 30
0.0
 11
27600.375
 21
3400.0
 31
0.0
  0
INSERT
  5
1C8
330
1C3
100
AcDbEntity
  8
A-DIM
100
AcDbBlockReference
  2
_ARCHTICK
 10
27600.0
 20
2900.0
 30
0.0
 41
0.175
 42
0.175
 50
270.0
  0
INSERT
  5
1CA
330
1C3
100
AcDbEntity
  8
A-DIM
100
AcDbBlockReference
  2
_ARCHTICK
 10
27600.0
 20
3400.0
 30
0.0
 41
0.175
 42
0.175
 50
90.0
  0
LINE
  5
1CC
330
1C3
100
AcDbEntity
  8
0
100
AcDbLine
 10
27600.0
 20
2900.0
 30
0.0
 11
27600.0
 21
3400.0
 31
0.0
  0
MTEXT
  5
1CD
330
1C3
100
AcDbEntity
  8
A-DIM
100
AcDbMText
 10
27599.775
 20
3150.0
 30
0.0
 40
0.25
 71
5
  1
50000
  7
OpenSansCondensed-Light
 50
90.0
  0
POINT
  5
1CE
330
1C3
100
AcDbEntity
  8
Defpoints
100
AcDbPoint
 10
27600.0
 20
2900.0
 30
0.0
  0
POINT
  5
1CF
330
1C3
100
AcDbEntity
  8
Defpoints
100
AcDbPoint
 10
26700.0
 20
2900.0
 30
0.0
  0
POINT
  5
1D0
330
1C3
100
AcDbEntity
  8
Defpoints
100
AcDbPoint
 10
26700.0
 20
3400.0
 30
0.0
  0
ENDBLK
  5
1C5
330
1C3
100
AcDbEntity
  8
0
100
AcDbBlockEnd
  0
BLOCK
  5
1D3
330
1D2
100
AcDbEntity
  8
0
100
AcDbBlockBegin
  2
*D13
 70
1
 10
0.0
 20
0.0
 30
0.0
  3
*D13
  1

  0
LINE
  5
1D5
330
1D2
100
AcDbEntity
  8
0
100
AcDbLine
 10
26700.125
 20
3400.0
 30
0.0
 11
27600.375
 21
3400.0
 31
0.0
  0
LINE
  5
1D6
330
1D2
100
AcDbEntity
  8
0
100
AcDbLine
 10
26700.125
 20
5800.0
 30
0.0
 11
27600.375
 21
5800.0
 31
0.0
  0
INSERT
  5
1D7
330
1D2
100
AcDbEntity
  8
A-DIM
100
AcDbBlockReference
  2
_ARCHTICK
 10
27600.0
 20
3400.0
 30
0.0
 41
0.175
 42
0.175
 50
270.0
  0
INSERT
  5
1D9
330
1D2
100
AcDbEntity
  8
A-DIM
100
AcDbBlockReference
  2
_ARCHTICK
 10
27600.0
 20
5800.0
 30
0.0
 41
0.175
 42
0.175
 50
90.0
  0
LINE
  5
1DB
330
1D2
100
AcDbEntity
  8
0
100
AcDbLine
 10
27600.0
 20
3400.0
 30
0.0
 11
27600.0
 21
5800.0
 31
0.0
  0
MTEXT
  5
1DC
330
1D2
100
AcDbEntity
  8
A-DIM
100
AcDbMText
 10
27599.775
 20
4600.0
 30
0.0
 40
0.25
 71
5
  1
240000
  7
OpenSansCondensed-Light
 50
90.0
  0
POINT
  5
1DD
330
1D2
100
AcDbEntity
  8
Defpoints
100
AcDbPoint
 10
27600.0
 20
3400.0
 30
0.0
  0
POINT
  5
1DE
330
1D2
100
AcDbEntity
  8
Defpoints
100
AcDbPoint
 10
26700.0
 20
3400.0
 30
0.0
  0
POINT
  5
1DF
330
1D2
100
AcDbEntity
  8
Defpoints
100
AcDbPoint
 10
26700.0
 20
5800.0
 30
0.0
  0
ENDBLK
  5
1D4
330
1D2
100
AcDbEntity
  8
0
100
AcDbBlockEnd
  0
BLOCK
  5
1E2
330
1E1
100
AcDbEntity
  8
0
100
AcDbBlockBegin
  2
*D14
 70
1
 10
0.0
 20
0.0
 30
0.0
  3
*D14
  1

  0
LINE
  5
1E4
330
1E1
100
AcDbEntity
  8
0
100
AcDbLine
 10
26700.125
 20
0.0
 30
0.0
 11
29000.375
 21
0.0
 31
0.0
  0
LINE
  5
1E5
330
1E1
100
AcDbEntity
  8
0
100
AcDbLine
 10
26700.125
 20
6200.0
 30
0.0
 11
29000.375
 21
6200.0
 31
0.0
  0
INSERT
  5
1E6
330
1E1
100
AcDbEntity
  8
A-DIM
100
AcDbBlockReference
  2
_ARCHTICK
 10
29000.0
 20
0.0
 30
0.0
 41
0.175
 42
0.175
 50
270.0
  0
INSERT
  5
1E8
330
1E1
100
AcDbEntity
  8
A-DIM
100
AcDbBlockReference
  2
_ARCHTICK
 10
29000.0
 20
6200.0
 30
0.0
 41
0.175
 42
0.175
 50
90.0
  0
LINE
  5
1EA
330
1E1
100
AcDbEntity
  8
0
100
AcDbLine
 10
29000.0
 20
0.0
 30
0.0
 11
29000.0
 21
6200.0
 31
0.0
  0
MTEXT
  5
1EB
330
1E1
100
AcDbEntity
  8
A-DIM
100
AcDbMText
 10
28999.775
 20
3100.0
 30
0.0
 40
0.25
 71
5
  1
620000
  7
OpenSansCondensed-Light
 50
90.0
  0
POINT
  5
1EC
330
1E1
100
AcDbEntity
  8
Defpoints
100
AcDbPoint
 10
29000.0
 20
0.0
 30
0.0
  0
POINT
  5
1ED
330
1E1
100
AcDbEntity
  8
Defpoints
100
AcDbPoint
 10
26700.0
 20
0.0
 30
0.0
  0
POINT
  5
1EE
330
1E1
100
AcDbEntity
  8
Defpoints
100
AcDbPoint
 10
26700.0
 20
6200.0
 30
0.0
  0
ENDBLK
  5
1E3
330
1E1
100
AcDbEntity
  8
0
100
AcDbBlockEnd
  0
BLOCK
  5
1F1
330
1F0
100
AcDbEntity
  8
0
100
AcDbBlockBegin
  2
*D15
 70
1
 10
0.0
 20
0.0
 30
0.0
  3
*D15
  1

  0
LINE
  5
1F3
330
1F0
100
AcDbEntity
  8
0
100
AcDbLine
 10
17500.0
 20
-0.125
 30
0.0
 11
17500.0
 21
-1600.375
 31
0.0
  0
LINE
  5
1F4
330
1F0
100
AcDbEntity
  8
0
100
AcDbLine
 10
26600.0
 20
-0.125
 30
0.0
 11
26600.0
 21
-1600.375
 31
0.0
  0
INSERT
  5
1F5
330
1F0
100
AcDbEntity
  8
A-DIM
100
AcDbBlockReference
  2
_ARCHTICK
 10
17500.0
 20
-1600.0
 30
0.0
 41
0.175
 42
0.175
 50
180.0
  0
INSERT
  5
1F7
330
1F0
100
AcDbEntity
  8
A-DIM
100
AcDbBlockReference
  2
_ARCHTICK
 10
26600.0
 20
-1600.0
 30
0.0
 41
0.175
 42
0.175
  0
LINE
  5
1F9
330
1F0
100
AcDbEntity
  8
0
100
AcDbLine
 10
17500.0
 20
-1600.0
 30
0.0
 11
26600.0
 21
-1600.0
 31
0.0
  0
MTEXT
  5
1FA
330
1F0
100
AcDbEntity
  8
A-DIM
100
AcDbMText
 10
22050.0
 20
-1599.775
 30
0.0
 40
0.25
 71
5
  1
910000
  7
OpenSansCondensed-Light
  0
POINT
  5
1FB
330
1F0
100
AcDbEntity
  8
Defpoints
100
AcDbPoint
 10
17500.0
 20
-1600.0
 30
0.0
  0
POINT
  5
1FC
330
1F0
100
AcDbEntity
  8
Defpoints
100
AcDbPoint
 10
17500.0
 20
0.0
 30
0.0
  0
POINT
  5
1FD
330
1F0
100
AcDbEntity
  8
Defpoints
100
AcDbPoint
 10
26600.0
 20
0.0
 30
0.0
  0
ENDBLK
  5
1F2
330
1F0
100
AcDbEntity
  8
0
100
AcDbBlockEnd
  0
ENDSEC
  0
SECTION
  2
ENTITIES
  0
LINE
  5
9F
330
17
100
AcDbEntity
  8
A-MISC
100
AcDbLine
 10
-1700.0
 20
0.0
 30
0.0
 11
8980.0
 21
0.0
 31
0.0
  0
LINE
  5
A0
330
17
100
AcDbEntity
  8
A-MISC
100
AcDbLine
 10
-1500.0
 20
0.0
 30
0.0
 11
-1660.0
 21
-160.0
 31
0.0
  0
LINE
  5
A1
330
17
100
AcDbEntity
  8
A-MISC
100
AcDbLine
 10
-1100.0
 20
0.0
 30
0.0
 11
-1260.0
 21
-160.0
 31
0.0
  0
LINE
  5
A2
330
17
100
AcDbEntity
  8
A-MISC
100
AcDbLine
 10
-700.0
 20
0.0
 30
0.0
 11
-860.0
 21
-160.0
 31
0.0
  0
LINE
  5
A3
330
17
100
AcDbEntity
  8
A-MISC
100
AcDbLine
 10
-300.0
 20
0.0
 30
0.0
 11
-460.0
 21
-160.0
 31
0.0
  0
LINE
  5
A4
330
17
100
AcDbEntity
  8
A-MISC
100
AcDbLine
 10
100.0
 20
0.0
 30
0.0
 11
-60.0
 21
-160.0
 31
0.0
  0
LINE
  5
A5
330
17
100
AcDbEntity
  8
A-MISC
100
AcDbLine
 10
500.0
 20
0.0
 30
0.0
 11
340.0
 21
-160.0
 31
0.0
  0
LINE
  5
A6
330
17
100
AcDbEntity
  8
A-MISC
100
AcDbLine
 10
900.0
 20
0.0
 30
0.0
 11
740.0
 21
-160.0
 31
0.0
  0
LINE
  5
A7
330
17
100
AcDbEntity
  8
A-MISC
100
AcDbLine
 10
1300.0
 20
0.0
 30
0.0
 11
1140.0
 21
-160.0
 31
0.0
  0
LINE
  5
A8
330
17
100
AcDbEntity
  8
A-MISC
100
AcDbLine
 10
1700.0
 20
0.0
 30
0.0
 11
1540.0
 21
-160.0
 31
0.0
  0
LINE
  5
A9
330
17
100
AcDbEntity
  8
A-MISC
100
AcDbLine
 10
2100.0
 20
0.0
 30
0.0
 11
1940.0
 21
-160.0
 31
0.0
  0
LINE
  5
AA
330
17
100
AcDbEntity
  8
A-MISC
100
AcDbLine
 10
2500.0
 20
0.0
 30
0.0
 11
2340.0
 21
-160.0
 31
0.0
  0
LINE
  5
AB
330
17
100
AcDbEntity
  8
A-MISC
100
AcDbLine
 10
2900.0
 20
0.0
 30
0.0
 11
2740.0
 21
-160.0
 31
0.0
  0
LINE
  5
AC
330
17
100
AcDbEntity
  8
A-MISC
100
AcDbLine
 10
3300.0
 20
0.0
 30
0.0
 11
3140.0
 21
-160.0
 31
0.0
  0
LINE
  5
AD
330
17
100
AcDbEntity
  8
A-MISC
100
AcDbLine
 10
3700.0
 20
0.0
 30
0.0
 11
3540.0
 21
-160.0
 31
0.0
  0
LINE
  5
AE
330
17
100
AcDbEntity
  8
A-MISC
100
AcDbLine
 10
4100.0
 20
0.0
 30
0.0
 11
3940.0
 21
-160.0
 31
0.0
  0
LINE
  5
AF
330
17
100
AcDbEntity
  8
A-MISC
100
AcDbLine
 10
4500.0
 20
0.0
 30
0.0
 11
4340.0
 21
-160.0
 31
0.0
  0
LINE
  5
B0
330
17
100
AcDbEntity
  8
A-MISC
100
AcDbLine
 10
4900.0
 20
0.0
 30
0.0
 11
4740.0
 21
-160.0
 31
0.0
  0
LINE
  5
B1
330
17
100
AcDbEntity
  8
A-MISC
100
AcDbLine
 10
5300.0
 20
0.0
 30
0.0
 11
5140.0
 21
-160.0
 31
0.0
  0
LINE
  5
B2
330
17
100
AcDbEntity
  8
A-MISC
100
AcDbLine
 10
5700.0
 20
0.0
 30
0.0
 11
5540.0
 21
-160.0
 31
0.0
  0
LINE
  5
B3
330
17
100
AcDbEntity
  8
A-MISC
100
AcDbLine
 10
6100.0
 20
0.0
 30
0.0
 11
5940.0
 21
-160.0
 31
0.0
  0
LINE
  5
B4
330
17
100
AcDbEntity
  8
A-MISC
100
AcDbLine
 10
6500.0
 20
0.0
 30
0.0
 11
6340.0
 21
-160.0
 31
0.0
  0
LINE
  5
B5
330
17
100
AcDbEntity
  8
A-MISC
100
AcDbLine
 10
6900.0
 20
0.0
 30
0.0
 11
6740.0
 21
-160.0
 31
0.0
  0
LINE
  5
B6
330
17
100
AcDbEntity
  8
A-MISC
100
AcDbLine
 10
7300.0
 20
0.0
 30
0.0
 11
7140.0
 21
-160.0
 31
0.0
  0
LINE
  5
B7
330
17
100
AcDbEntity
  8
A-MISC
100
AcDbLine
 10
7700.0
 20
0.0
 30
0.0
 11
7540.0
 21
-160.0
 31
0.0
  0
LINE
  5
B8
330
17
100
AcDbEntity
  8
A-MISC
100
AcDbLine
 10
8100.0
 20
0.0
 30
0.0
 11
7940.0
 21
-160.0
 31
0.0
  0
LINE
  5
B9
330
17
100
AcDbEntity
  8
A-MISC
100
AcDbLine
 10
8500.0
 20
0.0
 30
0.0
 11
8340.0
 21
-160.0
 31
0.0
  0
LWPOLYLINE
  5
BA
330
17
100
AcDbEntity
  8
S-FDN
100
AcDbPolyline
 90
4
 70
1
 10
-75.0
 20
-500.0
 10
75.0
 20
-500.0
 10
75.0
 20
400.0
 10
-75.0
 20
400.0
  0
LWPOLYLINE
  5
BB
330
17
100
AcDbEntity
  8
S-FDN
100
AcDbPolyline
 90
4
 70
1
 10
-300.0
 20
-650.0
 10
300.0
 20
-650.0
 10
300.0
 20
-500.0
 10
-300.0
 20
-500.0
  0
LWPOLYLINE
  5
BC
330
17
100
AcDbEntity
  8
S-FDN
100
AcDbPolyline
 90
4
 70
1
 10
7205.0
 20
-500.0
 10
7355.0
 20
-500.0
 10
7355.0
 20
400.0
 10
7205.0
 20
400.0
  0
LWPOLYLINE
  5
BD
330
17
100
AcDbEntity
  8
S-FDN
100
AcDbPolyline
 90
4
 70
1
 10
6980.0
 20
-650.0
 10
7580.0
 20
-650.0
 10
7580.0
 20
-500.0
 10
6980.0
 20
-500.0
  0
LWPOLYLINE
  5
BE
330
17
100
AcDbEntity
  8
S-FDN
100
AcDbPolyline
 90
4
 70
1
 10
-75.0
 20
-200.0
 10
7355.0
 20
-200.0
 10
7355.0
 20
-50.0
 10
-75.0
 20
-50.0
  0
TEXT
  5
BF
330
17
100
AcDbEntity
  8
S-ANNO
100
AcDbText
 10
3640.0
 20
-1050.0
 30
0.0
 40
220.00000000000003
  1
布基礎 立上り t150 H450／フーチング W600×t150
  7
DIP
 72
1
 11
3640.0
 21
-1050.0
 31
0.0
100
AcDbText
 73
2
  0
LWPOLYLINE
  5
C0
330
17
100
AcDbEntity
  8
S-BEAM
100
AcDbPolyline
 90
4
 70
1
 10
0.0
 20
260.0
 10
7280.0
 20
260.0
 10
7280.0
 20
500.0
 10
0.0
 20
500.0
  0
LWPOLYLINE
  5
C1
330
17
100
AcDbEntity
  8
A-MISC
100
AcDbPolyline
 90
4
 70
1
 10
0.0
 20
2840.0
 10
7280.0
 20
2840.0
 10
7280.0
 20
2900.0
 10
0.0
 20
2900.0
  0
LWPOLYLINE
  5
C2
330
17
100
AcDbEntity
  8
S-BEAM
100
AcDbPolyline
 90
4
 70
1
 10
0.0
 20
3100.0
 10
7280.0
 20
3100.0
 10
7280.0
 20
3400.0
 10
0.0
 20
3400.0
  0
LWPOLYLINE
  5
C3
330
17
100
AcDbEntity
  8
A-MISC
100
AcDbPolyline
 90
4
 70
1
 10
0.0
 20
5740.0
 10
6370.0
 20
5740.0
 10
6370.0
 20
5800.0
 10
0.0
 20
5800.0
  0
LWPOLYLINE
  5
C4
330
17
100
AcDbEntity
  8
S-BEAM
100
AcDbPolyline
 90
4
 70
1
 10
0.0
 20
6060.0
 10
6370.0
 20
6060.0
 10
6370.0
 20
6200.0
 10
0.0
 20
6200.0
  0
LWPOLYLINE
  5
C5
330
17
100
AcDbEntity
  8
A-WALL
100
AcDbPolyline
 90
4
 70
1
 10
-100.0
 20
400.0
 10
100.0
 20
400.0
 10
100.0
 20
3400.0
 10
-100.0
 20
3400.0
  0
LWPOLYLINE
  5
C6
330
17
100
AcDbEntity
  8
A-WALL
100
AcDbPolyline
 90
4
 70
1
 10
7180.0
 20
400.0
 10
7380.0
 20
400.0
 10
7380.0
 20
3400.0
 10
7180.0
 20
3400.0
  0
LWPOLYLINE
  5
C7
330
17
100
AcDbEntity
  8
A-WALL
100
AcDbPolyline
 90
4
 70
1
 10
-100.0
 20
3400.0
 10
100.0
 20
3400.0
 10
100.0
 20
6200.0
 10
-100.0
 20
6200.0
  0
LWPOLYLINE
  5
C8
330
17
100
AcDbEntity
  8
A-WALL
100
AcDbPolyline
 90
4
 70
1
 10
6270.0
 20
3400.0
 10
6470.0
 20
3400.0
 10
6470.0
 20
6200.0
 10
6270.0
 20
6200.0
  0
LWPOLYLINE
  5
C9
330
17
100
AcDbEntity
  8
A-ROOF
100
AcDbPolyline
 90
4
 70
1
 10
-600.0
 20
5960.0
 10
3185.0
 20
7474.0
 10
3185.0
 20
7354.0
 10
-600.0
 20
5840.0
  0
LWPOLYLINE
  5
CA
330
17
100
AcDbEntity
  8
A-ROOF
100
AcDbPolyline
 90
4
 70
1
 10
6970.0
 20
5960.0
 10
3185.0
 20
7474.0
 10
3185.0
 20
7354.0
 10
6970.0
 20
5840.0
  0
LWPOLYLINE
  5
CB
330
17
100
AcDbEntity
  8
A-HTCH
100
AcDbPolyline
 90
4
 70
1
 10
200.0
 20
5800.0
 10
6170.0
 20
5800.0
 10
6170.0
 20
6100.0
 10
200.0
 20
6100.0
  0
TEXT
  5
CC
330
17
100
AcDbEntity
  8
S-ANNO
100
AcDbText
 10
3185.0
 20
6280.0
 30
0.0
 40
200.0
  1
吹込みグラスウール 18K t300
  7
DIP
 72
1
 11
3185.0
 21
6280.0
 31
0.0
100
AcDbText
 73
2
  0
LWPOLYLINE
  5
CD
330
17
100
AcDbEntity
  8
A-ROOF
100
AcDbPolyline
 90
4
 70
1
 10
6370.0
 20
3400.0
 10
7880.0
 20
3098.0
 10
7880.0
 20
2978.0
 10
6370.0
 20
3280.0
  0
TEXT
  5
CE
330
17
100
AcDbEntity
  8
A-ANNO
100
AcDbText
 10
1820.0
 20
1400.0
 30
0.0
 40
300.0
  1
LDK
  7
DIP
 72
1
 11
1820.0
 21
1400.0
 31
0.0
100
AcDbText
 73
2
  0
TEXT
  5
CF
330
17
100
AcDbEntity
  8
A-ANNO
100
AcDbText
 10
4550.0
 20
1400.0
 30
0.0
 40
300.0
  1
キッチン
  7
DIP
 72
1
 11
4550.0
 21
1400.0
 31
0.0
100
AcDbText
 73
2
  0
TEXT
  5
D0
330
17
100
AcDbEntity
  8
A-ANNO
100
AcDbText
 10
6370.0
 20
1400.0
 30
0.0
 40
260.0
  1
浴室
  7
DIP
 72
1
 11
6370.0
 21
1400.0
 31
0.0
100
AcDbText
 73
2
  0
TEXT
  5
D1
330
17
100
AcDbEntity
  8
A-ANNO
100
AcDbText
 10
1820.0
 20
4300.0
 30
0.0
 40
300.0
  1
主寝室
  7
DIP
 72
1
 11
1820.0
 21
4300.0
 31
0.0
100
AcDbText
 73
2
  0
TEXT
  5
D2
330
17
100
AcDbEntity
  8
A-ANNO
100
AcDbText
 10
4550.0
 20
4300.0
 30
0.0
 40
260.0
  1
2階ホール
  7
DIP
 72
1
 11
4550.0
 21
4300.0
 31
0.0
100
AcDbText
 73
2
  0
TEXT
  5
D3
330
17
100
AcDbEntity
  8
A-ANNO
100
AcDbText
 10
3185.0
 20
6650.0
 30
0.0
 40
240.0
  1
小屋裏
  7
DIP
 72
1
 11
3185.0
 21
6650.0
 31
0.0
100
AcDbText
 73
2
  0
DIMENSION
  5
D4
330
17
100
AcDbEntity
  8
A-DIM
100
AcDbDimension
280
0
  2
*D1
  3
EZDXF
 10
8280.0
 20
0.0
 30
0.0
 11
8279.775
 21
250.0
 31
0.0
 70
32
 71
5
  1
<>
100
AcDbAlignedDimension
 13
7380.0
 23
0.0
 33
0.0
 14
7380.0
 24
500.0
 34
0.0
 50
90.0
100
AcDbRotatedDimension
  0
DIMENSION
  5
E3
330
17
100
AcDbEntity
  8
A-DIM
100
AcDbDimension
280
0
  2
*D2
  3
EZDXF
 10
8280.0
 20
500.0
 30
0.0
 11
8279.775
 21
1700.0
 31
0.0
 70
32
 71
5
  1
<>
100
AcDbAlignedDimension
 13
7380.0
 23
500.0
 33
0.0
 14
7380.0
 24
2900.0
 34
0.0
 50
90.0
100
AcDbRotatedDimension
  0
DIMENSION
  5
F2
330
17
100
AcDbEntity
  8
A-DIM
100
AcDbDimension
280
0
  2
*D3
  3
EZDXF
 10
8280.0
 20
2900.0
 30
0.0
 11
8279.775
 21
3150.0
 31
0.0
 70
32
 71
5
  1
<>
100
AcDbAlignedDimension
 13
7380.0
 23
2900.0
 33
0.0
 14
7380.0
 24
3400.0
 34
0.0
 50
90.0
100
AcDbRotatedDimension
  0
DIMENSION
  5
101
330
17
100
AcDbEntity
  8
A-DIM
100
AcDbDimension
280
0
  2
*D4
  3
EZDXF
 10
8280.0
 20
3400.0
 30
0.0
 11
8279.775
 21
4600.0
 31
0.0
 70
32
 71
5
  1
<>
100
AcDbAlignedDimension
 13
7380.0
 23
3400.0
 33
0.0
 14
7380.0
 24
5800.0
 34
0.0
 50
90.0
100
AcDbRotatedDimension
  0
DIMENSION
  5
110
330
17
100
AcDbEntity
  8
A-DIM
100
AcDbDimension
280
0
  2
*D5
  3
EZDXF
 10
8280.0
 20
5800.0
 30
0.0
 11
8279.775
 21
6000.0
 31
0.0
 70
32
 71
5
  1
<>
100
AcDbAlignedDimension
 13
7380.0
 23
5800.0
 33
0.0
 14
7380.0
 24
6200.0
 34
0.0
 50
90.0
100
AcDbRotatedDimension
  0
DIMENSION
  5
11F
330
17
100
AcDbEntity
  8
A-DIM
100
AcDbDimension
280
0
  2
*D6
  3
EZDXF
 10
9680.0
 20
500.0
 30
0.0
 11
9679.775
 21
1950.0
 31
0.0
 70
32
 71
5
  1
<>
100
AcDbAlignedDimension
 13
7380.0
 23
500.0
 33
0.0
 14
7380.0
 24
3400.0
 34
0.0
 50
90.0
100
AcDbRotatedDimension
  0
DIMENSION
  5
12E
330
17
100
AcDbEntity
  8
A-DIM
100
AcDbDimension
280
0
  2
*D7
  3
EZDXF
 10
11080.0
 20
0.0
 30
0.0
 11
11079.775
 21
3100.0
 31
0.0
 70
32
 71
5
  1
<>
100
AcDbAlignedDimension
 13
7380.0
 23
0.0
 33
0.0
 14
7380.0
 24
6200.0
 34
0.0
 50
90.0
100
AcDbRotatedDimension
  0
DIMENSION
  5
13D
330
17
100
AcDbEntity
  8
A-DIM
100
AcDbDimension
280
0
  2
*D8
  3
EZDXF
 10
12480.0
 20
0.0
 30
0.0
 11
12479.775
 21
3737.0
 31
0.0
 70
32
 71
5
  1
<>
100
AcDbAlignedDimension
 13
7380.0
 23
0.0
 33
0.0
 14
7380.0
 24
7474.0
 34
0.0
 50
90.0
100
AcDbRotatedDimension
  0
DIMENSION
  5
14C
330
17
100
AcDbEntity
  8
A-DIM
100
AcDbDimension
280
0
  2
*D9
  3
EZDXF
 10
0.0
 20
-1600.0
 30
0.0
 11
3640.0
 21
-1599.775
 31
0.0
 70
32
 71
5
  1
<>
100
AcDbAlignedDimension
 13
0.0
 23
0.0
 33
0.0
 14
7280.0
 24
0.0
 34
0.0
 50
0.0
100
AcDbRotatedDimension
  0
LINE
  5
15B
330
17
100
AcDbEntity
  8
A-DIM
100
AcDbLine
 10
-1000.0
 20
0.0
 30
0.0
 11
-1900.0
 21
0.0
 31
0.0
  0
LWPOLYLINE
  5
15C
330
17
100
AcDbEntity
  8
A-DIM
100
AcDbPolyline
 90
3
 70
1
 10
-1900.0
 20
0.0
 10
-1770.0
 20
130.0
 10
-1770.0
 20
-130.0
  0
TEXT
  5
15D
330
17
100
AcDbEntity
  8
A-DIM
100
AcDbText
 10
-2150.0
 20
160.0
 30
0.0
 40
220.00000000000003
  1
GL  GL+0
  7
DIP
 72
2
 11
-2150.0
 21
160.0
 31
0.0
100
AcDbText
  0
LINE
  5
15E
330
17
100
AcDbEntity
  8
A-DIM
100
AcDbLine
 10
-1000.0
 20
500.0
 30
0.0
 11
-1900.0
 21
500.0
 31
0.0
  0
LWPOLYLINE
  5
15F
330
17
100
AcDbEntity
  8
A-DIM
100
AcDbPolyline
 90
3
 70
1
 10
-1900.0
 20
500.0
 10
-1770.0
 20
630.0
 10
-1770.0
 20
370.0
  0
TEXT
  5
160
330
17
100
AcDbEntity
  8
A-DIM
100
AcDbText
 10
-2150.0
 20
660.0
 30
0.0
 40
220.00000000000003
  1
1FL  GL+500
  7
DIP
 72
2
 11
-2150.0
 21
660.0
 31
0.0
100
AcDbText
  0
LINE
  5
161
330
17
100
AcDbEntity
  8
A-DIM
100
AcDbLine
 10
-1000.0
 20
3400.0
 30
0.0
 11
-1900.0
 21
3400.0
 31
0.0
  0
LWPOLYLINE
  5
162
330
17
100
AcDbEntity
  8
A-DIM
100
AcDbPolyline
 90
3
 70
1
 10
-1900.0
 20
3400.0
 10
-1770.0
 20
3530.0
 10
-1770.0
 20
3270.0
  0
TEXT
  5
163
330
17
100
AcDbEntity
  8
A-DIM
100
AcDbText
 10
-2150.0
 20
3560.0
 30
0.0
 40
220.00000000000003
  1
2FL  GL+3,400
  7
DIP
 72
2
 11
-2150.0
 21
3560.0
 31
0.0
100
AcDbText
  0
LINE
  5
164
330
17
100
AcDbEntity
  8
A-DIM
100
AcDbLine
 10
-1000.0
 20
6200.0
 30
0.0
 11
-1900.0
 21
6200.0
 31
0.0
  0
LWPOLYLINE
  5
165
330
17
100
AcDbEntity
  8
A-DIM
100
AcDbPolyline
 90
3
 70
1
 10
-1900.0
 20
6200.0
 10
-1770.0
 20
6330.0
 10
-1770.0
 20
6070.0
  0
TEXT
  5
166
330
17
100
AcDbEntity
  8
A-DIM
100
AcDbText
 10
-2150.0
 20
6360.0
 30
0.0
 40
220.00000000000003
  1
軒高  GL+6,200
  7
DIP
 72
2
 11
-2150.0
 21
6360.0
 31
0.0
100
AcDbText
  0
LINE
  5
167
330
17
100
AcDbEntity
  8
A-DIM
100
AcDbLine
 10
-1000.0
 20
7474.0
 30
0.0
 11
-1900.0
 21
7474.0
 31
0.0
  0
LWPOLYLINE
  5
168
330
17
100
AcDbEntity
  8
A-DIM
100
AcDbPolyline
 90
3
 70
1
 10
-1900.0
 20
7474.0
 10
-1770.0
 20
7604.0
 10
-1770.0
 20
7344.0
  0
TEXT
  5
169
330
17
100
AcDbEntity
  8
A-DIM
100
AcDbText
 10
-2150.0
 20
7634.0
 30
0.0
 40
220.00000000000003
  1
最高  GL+7,474
  7
DIP
 72
2
 11
-2150.0
 21
7634.0
 31
0.0
100
AcDbText
  0
TEXT
  5
16A
330
17
100
AcDbEntity
  8
A-TTLB
100
AcDbText
 10
3640.0
 20
8700.0
 30
0.0
 40
400.0
  1
A-A' 断 面 図   S=1:100
  7
DIP
 72
1
 11
3640.0
 21
8700.0
 31
0.0
100
AcDbText
 73
2
  0
LINE
  5
16B
330
17
100
AcDbEntity
  8
A-MISC
100
AcDbLine
 10
15800.0
 20
0.0
 30
0.0
 11
28300.0
 21
0.0
 31
0.0
  0
LINE
  5
16C
330
17
100
AcDbEntity
  8
A-MISC
100
AcDbLine
 10
16000.0
 20
0.0
 30
0.0
 11
15840.0
 21
-160.0
 31
0.0
  0
LINE
  5
16D
330
17
100
AcDbEntity
  8
A-MISC
100
AcDbLine
 10
16400.0
 20
0.0
 30
0.0
 11
16240.0
 21
-160.0
 31
0.0
  0
LINE
  5
16E
330
17
100
AcDbEntity
  8
A-MISC
100
AcDbLine
 10
16800.0
 20
0.0
 30
0.0
 11
16640.0
 21
-160.0
 31
0.0
  0
LINE
  5
16F
330
17
100
AcDbEntity
  8
A-MISC
100
AcDbLine
 10
17200.0
 20
0.0
 30
0.0
 11
17040.0
 21
-160.0
 31
0.0
  0
LINE
  5
170
330
17
100
AcDbEntity
  8
A-MISC
100
AcDbLine
 10
17600.0
 20
0.0
 30
0.0
 11
17440.0
 21
-160.0
 31
0.0
  0
LINE
  5
171
330
17
100
AcDbEntity
  8
A-MISC
100
AcDbLine
 10
18000.0
 20
0.0
 30
0.0
 11
17840.0
 21
-160.0
 31
0.0
  0
LINE
  5
172
330
17
100
AcDbEntity
  8
A-MISC
100
AcDbLine
 10
18400.0
 20
0.0
 30
0.0
 11
18240.0
 21
-160.0
 31
0.0
  0
LINE
  5
173
330
17
100
AcDbEntity
  8
A-MISC
100
AcDbLine
 10
18800.0
 20
0.0
 30
0.0
 11
18640.0
 21
-160.0
 31
0.0
  0
LINE
  5
174
330
17
100
AcDbEntity
  8
A-MISC
100
AcDbLine
 10
19200.0
 20
0.0
 30
0.0
 11
19040.0
 21
-160.0
 31
0.0
  0
LINE
  5
175
330
17
100
AcDbEntity
  8
A-MISC
100
AcDbLine
 10
19600.0
 20
0.0
 30
0.0
 11
19440.0
 21
-160.0
 31
0.0
  0
LINE
  5
176
330
17
100
AcDbEntity
  8
A-MISC
100
AcDbLine
 10
20000.0
 20
0.0
 30
0.0
 11
19840.0
 21
-160.0
 31
0.0
  0
LINE
  5
177
330
17
100
AcDbEntity
  8
A-MISC
100
AcDbLine
 10
20400.0
 20
0.0
 30
0.0
 11
20240.0
 21
-160.0
 31
0.0
  0
LINE
  5
178
330
17
100
AcDbEntity
  8
A-MISC
100
AcDbLine
 10
20800.0
 20
0.0
 30
0.0
 11
20640.0
 21
-160.0
 31
0.0
  0
LINE
  5
179
330
17
100
AcDbEntity
  8
A-MISC
100
AcDbLine
 10
21200.0
 20
0.0
 30
0.0
 11
21040.0
 21
-160.0
 31
0.0
  0
LINE
  5
17A
330
17
100
AcDbEntity
  8
A-MISC
100
AcDbLine
 10
21600.0
 20
0.0
 30
0.0
 11
21440.0
 21
-160.0
 31
0.0
  0
LINE
  5
17B
330
17
100
AcDbEntity
  8
A-MISC
100
AcDbLine
 10
22000.0
 20
0.0
 30
0.0
 11
21840.0
 21
-160.0
 31
0.0
  0
LINE
  5
17C
330
17
100
AcDbEntity
  8
A-MISC
100
AcDbLine
 10
22400.0
 20
0.0
 30
0.0
 11
22240.0
 21
-160.0
 31
0.0
  0
LINE
  5
17D
330
17
100
AcDbEntity
  8
A-MISC
100
AcDbLine
 10
22800.0
 20
0.0
 30
0.0
 11
22640.0
 21
-160.0
 31
0.0
  0
LINE
  5
17E
330
17
100
AcDbEntity
  8
A-MISC
100
AcDbLine
 10
23200.0
 20
0.0
 30
0.0
 11
23040.0
 21
-160.0
 31
0.0
  0
LINE
  5
17F
330
17
100
AcDbEntity
  8
A-MISC
100
AcDbLine
 10
23600.0
 20
0.0
 30
0.0
 11
23440.0
 21
-160.0
 31
0.0
  0
LINE
  5
180
330
17
100
AcDbEntity
  8
A-MISC
100
AcDbLine
 10
24000.0
 20
0.0
 30
0.0
 11
23840.0
 21
-160.0
 31
0.0
  0
LINE
  5
181
330
17
100
AcDbEntity
  8
A-MISC
100
AcDbLine
 10
24400.0
 20
0.0
 30
0.0
 11
24240.0
 21
-160.0
 31
0.0
  0
LINE
  5
182
330
17
100
AcDbEntity
  8
A-MISC
100
AcDbLine
 10
24800.0
 20
0.0
 30
0.0
 11
24640.0
 21
-160.0
 31
0.0
  0
LINE
  5
183
330
17
100
AcDbEntity
  8
A-MISC
100
AcDbLine
 10
25200.0
 20
0.0
 30
0.0
 11
25040.0
 21
-160.0
 31
0.0
  0
LINE
  5
184
330
17
100
AcDbEntity
  8
A-MISC
100
AcDbLine
 10
25600.0
 20
0.0
 30
0.0
 11
25440.0
 21
-160.0
 31
0.0
  0
LINE
  5
185
330
17
100
AcDbEntity
  8
A-MISC
100
AcDbLine
 10
26000.0
 20
0.0
 30
0.0
 11
25840.0
 21
-160.0
 31
0.0
  0
LINE
  5
186
330
17
100
AcDbEntity
  8
A-MISC
100
AcDbLine
 10
26400.0
 20
0.0
 30
0.0
 11
26240.0
 21
-160.0
 31
0.0
  0
LINE
  5
187
330
17
100
AcDbEntity
  8
A-MISC
100
AcDbLine
 10
26800.0
 20
0.0
 30
0.0
 11
26640.0
 21
-160.0
 31
0.0
  0
LINE
  5
188
330
17
100
AcDbEntity
  8
A-MISC
100
AcDbLine
 10
27200.0
 20
0.0
 30
0.0
 11
27040.0
 21
-160.0
 31
0.0
  0
LINE
  5
189
330
17
100
AcDbEntity
  8
A-MISC
100
AcDbLine
 10
27600.0
 20
0.0
 30
0.0
 11
27440.0
 21
-160.0
 31
0.0
  0
LINE
  5
18A
330
17
100
AcDbEntity
  8
A-MISC
100
AcDbLine
 10
28000.0
 20
0.0
 30
0.0
 11
27840.0
 21
-160.0
 31
0.0
  0
LWPOLYLINE
  5
18B
330
17
100
AcDbEntity
  8
S-FDN
100
AcDbPolyline
 90
4
 70
1
 10
17425.0
 20
-500.0
 10
17575.0
 20
-500.0
 10
17575.0
 20
400.0
 10
17425.0
 20
400.0
  0
LWPOLYLINE
  5
18C
330
17
100
AcDbEntity
  8
S-FDN
100
AcDbPolyline
 90
4
 70
1
 10
17200.0
 20
-650.0
 10
17800.0
 20
-650.0
 10
17800.0
 20
-500.0
 10
17200.0
 20
-500.0
  0
LWPOLYLINE
  5
18D
330
17
100
AcDbEntity
  8
S-FDN
100
AcDbPolyline
 90
4
 70
1
 10
22885.0
 20
-500.0
 10
23035.0
 20
-500.0
 10
23035.0
 20
400.0
 10
22885.0
 20
400.0
  0
LWPOLYLINE
  5
18E
330
17
100
AcDbEntity
  8
S-FDN
100
AcDbPolyline
 90
4
 70
1
 10
22660.0
 20
-650.0
 10
23260.0
 20
-650.0
 10
23260.0
 20
-500.0
 10
22660.0
 20
-500.0
  0
LWPOLYLINE
  5
18F
330
17
100
AcDbEntity
  8
S-FDN
100
AcDbPolyline
 90
4
 70
1
 10
26525.0
 20
-500.0
 10
26675.0
 20
-500.0
 10
26675.0
 20
400.0
 10
26525.0
 20
400.0
  0
LWPOLYLINE
  5
190
330
17
100
AcDbEntity
  8
S-FDN
100
AcDbPolyline
 90
4
 70
1
 10
26300.0
 20
-650.0
 10
26900.0
 20
-650.0
 10
26900.0
 20
-500.0
 10
26300.0
 20
-500.0
  0
LWPOLYLINE
  5
191
330
17
100
AcDbEntity
  8
S-BEAM
100
AcDbPolyline
 90
4
 70
1
 10
17500.0
 20
260.0
 10
26600.0
 20
260.0
 10
26600.0
 20
500.0
 10
17500.0
 20
500.0
  0
LWPOLYLINE
  5
192
330
17
100
AcDbEntity
  8
A-MISC
100
AcDbPolyline
 90
4
 70
1
 10
17500.0
 20
2840.0
 10
26600.0
 20
2840.0
 10
26600.0
 20
2900.0
 10
17500.0
 20
2900.0
  0
LWPOLYLINE
  5
193
330
17
100
AcDbEntity
  8
S-BEAM
100
AcDbPolyline
 90
4
 70
1
 10
17500.0
 20
3100.0
 10
26600.0
 20
3100.0
 10
26600.0
 20
3400.0
 10
17500.0
 20
3400.0
  0
LWPOLYLINE
  5
194
330
17
100
AcDbEntity
  8
A-MISC
100
AcDbPolyline
 90
4
 70
1
 10
17500.0
 20
5740.0
 10
26600.0
 20
5740.0
 10
26600.0
 20
5800.0
 10
17500.0
 20
5800.0
  0
LWPOLYLINE
  5
195
330
17
100
AcDbEntity
  8
A-WALL
100
AcDbPolyline
 90
4
 70
1
 10
17400.0
 20
400.0
 10
17600.0
 20
400.0
 10
17600.0
 20
6928.0
 10
17400.0
 20
6928.0
  0
LWPOLYLINE
  5
196
330
17
100
AcDbEntity
  8
A-WALL
100
AcDbPolyline
 90
4
 70
1
 10
26500.0
 20
400.0
 10
26700.0
 20
400.0
 10
26700.0
 20
6928.0
 10
26500.0
 20
6928.0
  0
LWPOLYLINE
  5
197
330
17
100
AcDbEntity
  8
A-WALL
100
AcDbPolyline
 90
4
 70
1
 10
22902.5
 20
500.0
 10
23017.5
 20
500.0
 10
23017.5
 20
2900.0
 10
22902.5
 20
2900.0
  0
LWPOLYLINE
  5
198
330
17
100
AcDbEntity
  8
A-WALL
100
AcDbPolyline
 90
4
 70
1
 10
21082.5
 20
3400.0
 10
21197.5
 20
3400.0
 10
21197.5
 20
5800.0
 10
21082.5
 20
5800.0
  0
LWPOLYLINE
  5
199
330
17
100
AcDbEntity
  8
A-WALL
100
AcDbPolyline
 90
4
 70
1
 10
23812.5
 20
3400.0
 10
23927.5
 20
3400.0
 10
23927.5
 20
5800.0
 10
23812.5
 20
5800.0
  0
LWPOLYLINE
  5
19A
330
17
100
AcDbEntity
  8
A-ROOF
100
AcDbPolyline
 90
4
 70
1
 10
16900.0
 20
6808.0
 10
27200.0
 20
6808.0
 10
27200.0
 20
6928.0
 10
16900.0
 20
6928.0
  0
LINE
  5
19B
330
17
100
AcDbEntity
  8
A-ROOF
  6
HIDDEN2
100
AcDbLine
 10
16900.0
 20
7474.0
 30
0.0
 11
27200.0
 21
7474.0
 31
0.0
  0
TEXT
  5
19C
330
17
100
AcDbEntity
  8
A-ROOF
100
AcDbText
 10
22050.0
 20
7694.0
 30
0.0
 40
200.0
  1
棟（切断面の向こう）GL+7,474
  7
DIP
 72
1
 11
22050.0
 21
7694.0
 31
0.0
100
AcDbText
 73
2
  0
LWPOLYLINE
  5
19D
330
17
100
AcDbEntity
  8
A-HTCH
100
AcDbPolyline
 90
4
 70
1
 10
17700.0
 20
5800.0
 10
26400.0
 20
5800.0
 10
26400.0
 20
6100.0
 10
17700.0
 20
6100.0
  0
TEXT
  5
19E
330
17
100
AcDbEntity
  8
A-ANNO
100
AcDbText
 10
20230.0
 20
1400.0
 30
0.0
 40
300.0
  1
LDK
  7
DIP
 72
1
 11
20230.0
 21
1400.0
 31
0.0
100
AcDbText
 73
2
  0
TEXT
  5
19F
330
17
100
AcDbEntity
  8
A-ANNO
100
AcDbText
 10
24780.0
 20
1400.0
 30
0.0
 40
300.0
  1
和室
  7
DIP
 72
1
 11
24780.0
 21
1400.0
 31
0.0
100
AcDbText
 73
2
  0
TEXT
  5
1A0
330
17
100
AcDbEntity
  8
A-ANNO
100
AcDbText
 10
19320.0
 20
4300.0
 30
0.0
 40
280.0
  1
主寝室
  7
DIP
 72
1
 11
19320.0
 21
4300.0
 31
0.0
100
AcDbText
 73
2
  0
TEXT
  5
1A1
330
17
100
AcDbEntity
  8
A-ANNO
100
AcDbText
 10
22505.0
 20
4300.0
 30
0.0
 40
280.0
  1
洋室1
  7
DIP
 72
1
 11
22505.0
 21
4300.0
 31
0.0
100
AcDbText
 73
2
  0
TEXT
  5
1A2
330
17
100
AcDbEntity
  8
A-ANNO
100
AcDbText
 10
25235.0
 20
4300.0
 30
0.0
 40
280.0
  1
洋室2
  7
DIP
 72
1
 11
25235.0
 21
4300.0
 31
0.0
100
AcDbText
 73
2
  0
TEXT
  5
1A3
330
17
100
AcDbEntity
  8
A-ANNO
100
AcDbText
 10
22050.0
 20
6360.0
 30
0.0
 40
240.0
  1
小屋裏
  7
DIP
 72
1
 11
22050.0
 21
6360.0
 31
0.0
100
AcDbText
 73
2
  0
DIMENSION
  5
1A4
330
17
100
AcDbEntity
  8
A-DIM
100
AcDbDimension
280
0
  2
*D10
  3
EZDXF
 10
27600.0
 20
0.0
 30
0.0
 11
27599.775
 21
250.0
 31
0.0
 70
32
 71
5
  1
<>
100
AcDbAlignedDimension
 13
26700.0
 23
0.0
 33
0.0
 14
26700.0
 24
500.0
 34
0.0
 50
90.0
100
AcDbRotatedDimension
  0
DIMENSION
  5
1B3
330
17
100
AcDbEntity
  8
A-DIM
100
AcDbDimension
280
0
  2
*D11
  3
EZDXF
 10
27600.0
 20
500.0
 30
0.0
 11
27599.775
 21
1700.0
 31
0.0
 70
32
 71
5
  1
<>
100
AcDbAlignedDimension
 13
26700.0
 23
500.0
 33
0.0
 14
26700.0
 24
2900.0
 34
0.0
 50
90.0
100
AcDbRotatedDimension
  0
DIMENSION
  5
1C2
330
17
100
AcDbEntity
  8
A-DIM
100
AcDbDimension
280
0
  2
*D12
  3
EZDXF
 10
27600.0
 20
2900.0
 30
0.0
 11
27599.775
 21
3150.0
 31
0.0
 70
32
 71
5
  1
<>
100
AcDbAlignedDimension
 13
26700.0
 23
2900.0
 33
0.0
 14
26700.0
 24
3400.0
 34
0.0
 50
90.0
100
AcDbRotatedDimension
  0
DIMENSION
  5
1D1
330
17
100
AcDbEntity
  8
A-DIM
100
AcDbDimension
280
0
  2
*D13
  3
EZDXF
 10
27600.0
 20
3400.0
 30
0.0
 11
27599.775
 21
4600.0
 31
0.0
 70
32
 71
5
  1
<>
100
AcDbAlignedDimension
 13
26700.0
 23
3400.0
 33
0.0
 14
26700.0
 24
5800.0
 34
0.0
 50
90.0
100
AcDbRotatedDimension
  0
DIMENSION
  5
1E0
330
17
100
AcDbEntity
  8
A-DIM
100
AcDbDimension
280
0
  2
*D14
  3
EZDXF
 10
29000.0
 20
0.0
 30
0.0
 11
28999.775
 21
3100.0
 31
0.0
 70
32
 71
5
  1
<>
100
AcDbAlignedDimension
 13
26700.0
 23
0.0
 33
0.0
 14
26700.0
 24
6200.0
 34
0.0
 50
90.0
100
AcDbRotatedDimension
  0
DIMENSION
  5
1EF
330
17
100
AcDbEntity
  8
A-DIM
100
AcDbDimension
280
0
  2
*D15
  3
EZDXF
 10
17500.0
 20
-1600.0
 30
0.0
 11
22050.0
 21
-1599.775
 31
0.0
 70
32
 71
5
  1
<>
100
AcDbAlignedDimension
 13
17500.0
 23
0.0
 33
0.0
 14
26600.0
 24
0.0
 34
0.0
 50
0.0
100
AcDbRotatedDimension
  0
LINE
  5
1FE
330
17
100
AcDbEntity
  8
A-DIM
100
AcDbLine
 10
16500.0
 20
0.0
 30
0.0
 11
15600.0
 21
0.0
 31
0.0
  0
LWPOLYLINE
  5
1FF
330
17
100
AcDbEntity
  8
A-DIM
100
AcDbPolyline
 90
3
 70
1
 10
15600.0
 20
0.0
 10
15730.0
 20
130.0
 10
15730.0
 20
-130.0
  0
TEXT
  5
200
330
17
100
AcDbEntity
  8
A-DIM
100
AcDbText
 10
15350.0
 20
160.0
 30
0.0
 40
220.00000000000003
  1
GL  GL+0
  7
DIP
 72
2
 11
15350.0
 21
160.0
 31
0.0
100
AcDbText
  0
LINE
  5
201
330
17
100
AcDbEntity
  8
A-DIM
100
AcDbLine
 10
16500.0
 20
500.0
 30
0.0
 11
15600.0
 21
500.0
 31
0.0
  0
LWPOLYLINE
  5
202
330
17
100
AcDbEntity
  8
A-DIM
100
AcDbPolyline
 90
3
 70
1
 10
15600.0
 20
500.0
 10
15730.0
 20
630.0
 10
15730.0
 20
370.0
  0
TEXT
  5
203
330
17
100
AcDbEntity
  8
A-DIM
100
AcDbText
 10
15350.0
 20
660.0
 30
0.0
 40
220.00000000000003
  1
1FL  GL+500
  7
DIP
 72
2
 11
15350.0
 21
660.0
 31
0.0
100
AcDbText
  0
LINE
  5
204
330
17
100
AcDbEntity
  8
A-DIM
100
AcDbLine
 10
16500.0
 20
3400.0
 30
0.0
 11
15600.0
 21
3400.0
 31
0.0
  0
LWPOLYLINE
  5
205
330
17
100
AcDbEntity
  8
A-DIM
100
AcDbPolyline
 90
3
 70
1
 10
15600.0
 20
3400.0
 10
15730.0
 20
3530.0
 10
15730.0
 20
3270.0
  0
TEXT
  5
206
330
17
100
AcDbEntity
  8
A-DIM
100
AcDbText
 10
15350.0
 20
3560.0
 30
0.0
 40
220.00000000000003
  1
2FL  GL+3,400
  7
DIP
 72
2
 11
15350.0
 21
3560.0
 31
0.0
100
AcDbText
  0
LINE
  5
207
330
17
100
AcDbEntity
  8
A-DIM
100
AcDbLine
 10
16500.0
 20
6200.0
 30
0.0
 11
15600.0
 21
6200.0
 31
0.0
  0
LWPOLYLINE
  5
208
330
17
100
AcDbEntity
  8
A-DIM
100
AcDbPolyline
 90
3
 70
1
 10
15600.0
 20
6200.0
 10
15730.0
 20
6330.0
 10
15730.0
 20
6070.0
  0
TEXT
  5
209
330
17
100
AcDbEntity
  8
A-DIM
100
AcDbText
 10
15350.0
 20
6360.0
 30
0.0
 40
220.00000000000003
  1
軒高  GL+6,200
  7
DIP
 72
2
 11
15350.0
 21
6360.0
 31
0.0
100
AcDbText
  0
LINE
  5
20A
330
17
100
AcDbEntity
  8
A-DIM
100
AcDbLine
 10
16500.0
 20
7474.0
 30
0.0
 11
15600.0
 21
7474.0
 31
0.0
  0
LWPOLYLINE
  5
20B
330
17
100
AcDbEntity
  8
A-DIM
100
AcDbPolyline
 90
3
 70
1
 10
15600.0
 20
7474.0
 10
15730.0
 20
7604.0
 10
15730.0
 20
7344.0
  0
TEXT
  5
20C
330
17
100
AcDbEntity
  8
A-DIM
100
AcDbText
 10
15350.0
 20
7634.0
 30
0.0
 40
220.00000000000003
  1
最高  GL+7,474
  7
DIP
 72
2
 11
15350.0
 21
7634.0
 31
0.0
100
AcDbText
  0
TEXT
  5
20D
330
17
100
AcDbEntity
  8
A-TTLB
100
AcDbText
 10
22050.0
 20
8700.0
 30
0.0
 40
400.0
  1
B-B' 断 面 図   S=1:100
  7
DIP
 72
1
 11
22050.0
 21
8700.0
 31
0.0
100
AcDbText
 73
2
  0
LWPOLYLINE
  5
20E
330
17
100
AcDbEntity
  8
A-TTLB
100
AcDbPolyline
 90
4
 70
1
 10
-9146.824778308322
 20
-15850.1875
 10
50253.17522169168
 20
-15850.1875
 10
50253.17522169168
 20
26149.8125
 10
-9146.824778308322
 20
26149.8125
  0
LWPOLYLINE
  5
20F
330
17
100
AcDbEntity
  8
A-TTLB
100
AcDbPolyline
 90
4
 70
1
 10
-8146.8247783083225
 20
-14850.1875
 10
49253.17522169168
 20
-14850.1875
 10
49253.17522169168
 20
25149.8125
 10
-8146.8247783083225
 20
25149.8125
  0
LWPOLYLINE
  5
210
330
17
100
AcDbEntity
  8
A-TTLB
100
AcDbPolyline
 90
4
 70
1
 10
33253.17522169168
 20
-14850.1875
 10
49253.17522169168
 20
-14850.1875
 10
49253.17522169168
 20
-10650.1875
 10
33253.17522169168
 20
-10650.1875
  0
LINE
  5
211
330
17
100
AcDbEntity
  8
A-TTLB
100
AcDbLine
 10
33253.17522169168
 20
-14150.1875
 30
0.0
 11
49253.17522169168
 21
-14150.1875
 31
0.0
  0
LINE
  5
212
330
17
100
AcDbEntity
  8
A-TTLB
100
AcDbLine
 10
33253.17522169168
 20
-13450.1875
 30
0.0
 11
49253.17522169168
 21
-13450.1875
 31
0.0
  0
LINE
  5
213
330
17
100
AcDbEntity
  8
A-TTLB
100
AcDbLine
 10
33253.17522169168
 20
-12750.1875
 30
0.0
 11
49253.17522169168
 21
-12750.1875
 31
0.0
  0
LINE
  5
214
330
17
100
AcDbEntity
  8
A-TTLB
100
AcDbLine
 10
33253.17522169168
 20
-12050.1875
 30
0.0
 11
49253.17522169168
 21
-12050.1875
 31
0.0
  0
LINE
  5
215
330
17
100
AcDbEntity
  8
A-TTLB
100
AcDbLine
 10
33253.17522169168
 20
-11350.1875
 30
0.0
 11
49253.17522169168
 21
-11350.1875
 31
0.0
  0
LINE
  5
216
330
17
100
AcDbEntity
  8
A-TTLB
100
AcDbLine
 10
36653.17522169168
 20
-14850.1875
 30
0.0
 11
36653.17522169168
 21
-14150.1875
 31
0.0
  0
LINE
  5
217
330
17
100
AcDbEntity
  8
A-TTLB
100
AcDbLine
 10
36653.17522169168
 20
-14150.1875
 30
0.0
 11
36653.17522169168
 21
-13450.1875
 31
0.0
  0
LINE
  5
218
330
17
100
AcDbEntity
  8
A-TTLB
100
AcDbLine
 10
36653.17522169168
 20
-13450.1875
 30
0.0
 11
36653.17522169168
 21
-12750.1875
 31
0.0
  0
LINE
  5
219
330
17
100
AcDbEntity
  8
A-TTLB
100
AcDbLine
 10
36653.17522169168
 20
-12750.1875
 30
0.0
 11
36653.17522169168
 21
-12050.1875
 31
0.0
  0
LINE
  5
21A
330
17
100
AcDbEntity
  8
A-TTLB
100
AcDbLine
 10
36653.17522169168
 20
-12050.1875
 30
0.0
 11
36653.17522169168
 21
-11350.1875
 31
0.0
  0
TEXT
  5
21B
330
17
100
AcDbEntity
  8
A-TTLB
100
AcDbText
 10
34953.17522169168
 20
-14500.1875
 30
0.0
 40
240.0
  1
図面番号
  7
DIP
 72
1
 11
34953.17522169168
 21
-14500.1875
 31
0.0
100
AcDbText
 73
2
  0
TEXT
  5
21C
330
17
100
AcDbEntity
  8
A-TTLB
100
AcDbText
 10
42953.17522169168
 20
-14500.1875
 30
0.0
 40
240.0
  1
A-06
  7
DIP
 72
1
 11
42953.17522169168
 21
-14500.1875
 31
0.0
100
AcDbText
 73
2
  0
TEXT
  5
21D
330
17
100
AcDbEntity
  8
A-TTLB
100
AcDbText
 10
34953.17522169168
 20
-13800.1875
 30
0.0
 40
240.0
  1
縮　　尺
  7
DIP
 72
1
 11
34953.17522169168
 21
-13800.1875
 31
0.0
100
AcDbText
 73
2
  0
TEXT
  5
21E
330
17
100
AcDbEntity
  8
A-TTLB
100
AcDbText
 10
42953.17522169168
 20
-13800.1875
 30
0.0
 40
240.0
  1
S=1:100
  7
DIP
 72
1
 11
42953.17522169168
 21
-13800.1875
 31
0.0
100
AcDbText
 73
2
  0
TEXT
  5
21F
330
17
100
AcDbEntity
  8
A-TTLB
100
AcDbText
 10
34953.17522169168
 20
-13100.1875
 30
0.0
 40
240.0
  1
作成日
  7
DIP
 72
1
 11
34953.17522169168
 21
-13100.1875
 31
0.0
100
AcDbText
 73
2
  0
TEXT
  5
220
330
17
100
AcDbEntity
  8
A-TTLB
100
AcDbText
 10
42953.17522169168
 20
-13100.1875
 30
0.0
 40
240.0
  1
2026-09-14
  7
DIP
 72
1
 11
42953.17522169168
 21
-13100.1875
 31
0.0
100
AcDbText
 73
2
  0
TEXT
  5
221
330
17
100
AcDbEntity
  8
A-TTLB
100
AcDbText
 10
34953.17522169168
 20
-12400.1875
 30
0.0
 40
240.0
  1
発注者
  7
DIP
 72
1
 11
34953.17522169168
 21
-12400.1875
 31
0.0
100
AcDbText
 73
2
  0
TEXT
  5
222
330
17
100
AcDbEntity
  8
A-TTLB
100
AcDbText
 10
42953.17522169168
 20
-12400.1875
 30
0.0
 40
240.0
  1
株式会社 新昭和（親会社）
  7
DIP
 72
1
 11
42953.17522169168
 21
-12400.1875
 31
0.0
100
AcDbText
 73
2
  0
TEXT
  5
223
330
17
100
AcDbEntity
  8
A-TTLB
100
AcDbText
 10
34953.17522169168
 20
-11700.1875
 30
0.0
 40
240.0
  1
設計者
  7
DIP
 72
1
 11
34953.17522169168
 21
-11700.1875
 31
0.0
100
AcDbText
 73
2
  0
TEXT
  5
224
330
17
100
AcDbEntity
  8
A-TTLB
100
AcDbText
 10
42953.17522169168
 20
-11700.1875
 30
0.0
 40
240.0
  1
株式会社 Design RAVO
  7
DIP
 72
1
 11
42953.17522169168
 21
-11700.1875
 31
0.0
100
AcDbText
 73
2
  0
TEXT
  5
225
330
17
100
AcDbEntity
  8
A-TTLB
100
AcDbText
 10
41253.17522169168
 20
-11000.1875
 30
0.0
 40
360.0
  1
断面図（A-A'・B-B'）
  7
DIP
 72
1
 11
41253.17522169168
 21
-11000.1875
 31
0.0
100
AcDbText
 73
2
  0
TEXT
  5
226
330
17
100
AcDbEntity
  8
A-TTLB
100
AcDbText
 10
-7546.8247783083225
 20
24349.8125
 30
0.0
 40
500.0
  1
断面図（A-A'・B-B'）　　S=1:100
  7
DIP
 11
-7546.8247783083225
 21
24349.8125
 31
0.0
100
AcDbText
  0
TEXT
  5
227
330
17
100
AcDbEntity
  8
A-TTLB
100
AcDbText
 10
-7546.8247783083225
 20
23549.8125
 30
0.0
 40
260.0
  1
新昭和グループ 標準仕様 2×6 戸建住宅 参考設計図書
  7
DIP
 11
-7546.8247783083225
 21
23549.8125
 31
0.0
100
AcDbText
  0
TEXT
  5
228
330
17
100
AcDbEntity
  8
A-TTLB
100
AcDbText
 10
-7546.8247783083225
 20
23049.8125
 30
0.0
 40
260.0
  1
WITH EARTH / ウィザースホーム仕様 木造2階建 新築工事
  7
DIP
 11
-7546.8247783083225
 21
23049.8125
 31
0.0
100
AcDbText
  0
TEXT
  5
229
330
17
100
AcDbEntity
  8
A-TTLB
100
AcDbText
 10
-7546.8247783083225
 20
-14450.1875
 30
0.0
 40
220.00000000000003
  1
参考プラン（架空案件）— 実在の敷地・施主ではありません
  7
DIP
 11
-7546.8247783083225
 21
-14450.1875
 31
0.0
100
AcDbText
  0
TEXT
  5
22A
330
17
100
AcDbEntity
  8
A-TTLB
100
AcDbText
 10
-7546.8247783083225
 20
-13950.1875
 30
0.0
 40
220.00000000000003
  1
〒901-0152 沖縄県那覇市字小禄1831-1 沖縄産業支援センター701
  7
DIP
 11
-7546.8247783083225
 21
-13950.1875
 31
0.0
100
AcDbText
  0
TEXT
  5
22B
330
17
100
AcDbEntity
  8
A-TTLB
100
AcDbText
 10
33453.17522169168
 20
-10250.1875
 30
0.0
 40
260.0
  1
A-A'：X=2,730 通り（南北方向）
  7
DIP
 11
33453.17522169168
 21
-10250.1875
 31
0.0
100
AcDbText
  0
TEXT
  5
22C
330
17
100
AcDbEntity
  8
A-TTLB
100
AcDbText
 10
33453.17522169168
 20
-9750.1875
 30
0.0
 40
260.0
  1
B-B'：Y=1,820 通り（東西方向）
  7
DIP
 11
33453.17522169168
 21
-9750.1875
 31
0.0
100
AcDbText
  0
TEXT
  5
22D
330
17
100
AcDbEntity
  8
A-ANNO
100
AcDbText
 10
33453.17522169168
 20
22149.8125
 30
0.0
 40
240.0
  1
【断熱仕様】
  7
DIP
 11
33453.17522169168
 21
22149.8125
 31
0.0
100
AcDbText
  0
TEXT
  5
22E
330
17
100
AcDbEntity
  8
A-ANNO
100
AcDbText
 10
33453.17522169168
 20
21717.8125
 30
0.0
 40
240.0
  1
　天井：吹込みグラスウール 18K t300（ブローイング）
  7
DIP
 11
33453.17522169168
 21
21717.8125
 31
0.0
100
AcDbText
  0
TEXT
  5
22F
330
17
100
AcDbEntity
  8
A-ANNO
100
AcDbText
 10
33453.17522169168
 20
21285.8125
 30
0.0
 40
240.0
  1
　外壁：高性能グラスウール 16K t140
  7
DIP
 11
33453.17522169168
 21
21285.8125
 31
0.0
100
AcDbText
  0
TEXT
  5
230
330
17
100
AcDbEntity
  8
A-ANNO
100
AcDbText
 10
33453.17522169168
 20
20853.8125
 30
0.0
 40
240.0
  1
　　　　（2×6 たて枠 38×140 の内側に充填）
  7
DIP
 11
33453.17522169168
 21
20853.8125
 31
0.0
100
AcDbText
  0
TEXT
  5
231
330
17
100
AcDbEntity
  8
A-ANNO
100
AcDbText
 10
33453.17522169168
 20
20421.8125
 30
0.0
 40
240.0
  1
　床　：押出法ポリスチレンフォーム 3種 t90
  7
DIP
 11
33453.17522169168
 21
20421.8125
 31
0.0
100
AcDbText
  0
TEXT
  5
232
330
17
100
AcDbEntity
  8
A-ANNO
100
AcDbText
 10
33453.17522169168
 20
19989.8125
 30
0.0
 40
240.0
  1
　開口：樹脂サッシ＋Low-E複層ガラス（アルゴン入）
  7
DIP
 11
33453.17522169168
 21
19989.8125
 31
0.0
100
AcDbText
  0
TEXT
  5
233
330
17
100
AcDbEntity
  8
A-ANNO
100
AcDbText
 10
33453.17522169168
 20
19557.8125
 30
0.0
 40
240.0
  1

  7
DIP
 11
33453.17522169168
 21
19557.8125
 31
0.0
100
AcDbText
  0
TEXT
  5
234
330
17
100
AcDbEntity
  8
A-ANNO
100
AcDbText
 10
33453.17522169168
 20
19125.8125
 30
0.0
 40
240.0
  1
【構造の要点】
  7
DIP
 11
33453.17522169168
 21
19125.8125
 31
0.0
100
AcDbText
  0
TEXT
  5
235
330
17
100
AcDbEntity
  8
A-ANNO
100
AcDbText
 10
33453.17522169168
 20
18693.8125
 30
0.0
 40
240.0
  1
　2階床根太：2×10（38×235）@455
  7
DIP
 11
33453.17522169168
 21
18693.8125
 31
0.0
100
AcDbText
  0
TEXT
  5
236
330
17
100
AcDbEntity
  8
A-ANNO
100
AcDbText
 10
33453.17522169168
 20
18261.8125
 30
0.0
 40
240.0
  1
　軒桁・頭つなぎ：2×6 二丁合わせ
  7
DIP
 11
33453.17522169168
 21
18261.8125
 31
0.0
100
AcDbText
  0
TEXT
  5
237
330
17
100
AcDbEntity
  8
A-ANNO
100
AcDbText
 10
33453.17522169168
 20
17829.8125
 30
0.0
 40
240.0
  1
　基礎：布基礎（立上り t150 H450／フーチング W600）
  7
DIP
 11
33453.17522169168
 21
17829.8125
 31
0.0
100
AcDbText
  0
TEXT
  5
238
330
17
100
AcDbEntity
  8
A-ANNO
100
AcDbText
 10
33453.17522169168
 20
17397.8125
 30
0.0
 40
240.0
  1

  7
DIP
 11
33453.17522169168
 21
17397.8125
 31
0.0
100
AcDbText
  0
TEXT
  5
239
330
17
100
AcDbEntity
  8
A-ANNO
100
AcDbText
 10
33453.17522169168
 20
16965.8125
 30
0.0
 40
240.0
  1
【高さ】
  7
DIP
 11
33453.17522169168
 21
16965.8125
 31
0.0
100
AcDbText
  0
TEXT
  5
23A
330
17
100
AcDbEntity
  8
A-ANNO
100
AcDbText
 10
33453.17522169168
 20
16533.8125
 30
0.0
 40
240.0
  1
　1階階高 2,900／2階階高 2,800
  7
DIP
 11
33453.17522169168
 21
16533.8125
 31
0.0
100
AcDbText
  0
TEXT
  5
23B
330
17
100
AcDbEntity
  8
A-ANNO
100
AcDbText
 10
33453.17522169168
 20
16101.8125
 30
0.0
 40
240.0
  1
　軒高 GL+6,200／最高 GL+7,474
  7
DIP
 11
33453.17522169168
 21
16101.8125
 31
0.0
100
AcDbText
  0
TEXT
  5
23C
330
17
100
AcDbEntity
  8
A-ANNO
100
AcDbText
 10
33453.17522169168
 20
15669.8125
 30
0.0
 40
240.0
  1

  7
DIP
 11
33453.17522169168
 21
15669.8125
 31
0.0
100
AcDbText
  0
TEXT
  5
23D
330
17
100
AcDbEntity
  8
A-ANNO
100
AcDbText
 10
33453.17522169168
 20
15237.8125
 30
0.0
 40
240.0
  1
【B-B' の見方】
  7
DIP
 11
33453.17522169168
 21
15237.8125
 31
0.0
100
AcDbText
  0
TEXT
  5
23E
330
17
100
AcDbEntity
  8
A-ANNO
100
AcDbText
 10
33453.17522169168
 20
14805.8125
 30
0.0
 40
240.0
  1
　棟と平行に切っているため、切断面の屋根は水平に見える。
  7
DIP
 11
33453.17522169168
 21
14805.8125
 31
0.0
100
AcDbText
  0
TEXT
  5
23F
330
17
100
AcDbEntity
  8
A-ANNO
100
AcDbText
 10
33453.17522169168
 20
14373.8125
 30
0.0
 40
240.0
  1
　棟（GL+7,474）は切断面の向こう側にあり、破線で示す。
  7
DIP
 11
33453.17522169168
 21
14373.8125
 31
0.0
100
AcDbText
  0
TEXT
  5
240
330
17
100
AcDbEntity
  8
A-ANNO
100
AcDbText
 10
33453.17522169168
 20
13941.8125
 30
0.0
 40
240.0
  1

  7
DIP
 11
33453.17522169168
 21
13941.8125
 31
0.0
100
AcDbText
  0
TEXT
  5
241
330
17
100
AcDbEntity
  8
A-ANNO
100
AcDbText
 10
33453.17522169168
 20
13509.8125
 30
0.0
 40
240.0
  1
【共通注記】
  7
DIP
 11
33453.17522169168
 21
13509.8125
 31
0.0
100
AcDbText
  0
TEXT
  5
242
330
17
100
AcDbEntity
  8
A-ANNO
100
AcDbText
 10
33453.17522169168
 20
13077.8125
 30
0.0
 40
240.0
  1
　1. 寸法の単位は mm。特記なき限り通り芯（壁芯）寸法とする。
  7
DIP
 11
33453.17522169168
 21
13077.8125
 31
0.0
100
AcDbText
  0
TEXT
  5
243
330
17
100
AcDbEntity
  8
A-ANNO
100
AcDbText
 10
33453.17522169168
 20
12645.8125
 30
0.0
 40
240.0
  1
　2. 構造は木造2階建 枠組壁工法（2×6）とし、親会社 株式会社
  7
DIP
 11
33453.17522169168
 21
12645.8125
 31
0.0
100
AcDbText
  0
TEXT
  5
244
330
17
100
AcDbEntity
  8
A-ANNO
100
AcDbText
 10
33453.17522169168
 20
12213.8125
 30
0.0
 40
240.0
  1
　　新昭和「ウィザースホーム」の標準工法（モノコック構造）に
  7
DIP
 11
33453.17522169168
 21
12213.8125
 31
0.0
100
AcDbText
  0
TEXT
  5
245
330
17
100
AcDbEntity
  8
A-ANNO
100
AcDbText
 10
33453.17522169168
 20
11781.8125
 30
0.0
 40
240.0
  1
　　準拠する。
  7
DIP
 11
33453.17522169168
 21
11781.8125
 31
0.0
100
AcDbText
  0
TEXT
  5
246
330
17
100
AcDbEntity
  8
A-ANNO
100
AcDbText
 10
33453.17522169168
 20
11349.8125
 30
0.0
 40
240.0
  1
　3. 本図面集は参考プラン（架空案件）である。実在の敷地・施主
  7
DIP
 11
33453.17522169168
 21
11349.8125
 31
0.0
100
AcDbText
  0
TEXT
  5
247
330
17
100
AcDbEntity
  8
A-ANNO
100
AcDbText
 10
33453.17522169168
 20
10917.8125
 30
0.0
 40
240.0
  1
　　ではない。実施設計にあたっては敷地条件・地盤調査結果・
  7
DIP
 11
33453.17522169168
 21
10917.8125
 31
0.0
100
AcDbText
  0
TEXT
  5
248
330
17
100
AcDbEntity
  8
A-ANNO
100
AcDbText
 10
33453.17522169168
 20
10485.8125
 30
0.0
 40
240.0
  1
　　各種申請の指導事項を反映すること。
  7
DIP
 11
33453.17522169168
 21
10485.8125
 31
0.0
100
AcDbText
  0
TEXT
  5
249
330
17
100
AcDbEntity
  8
A-ANNO
100
AcDbText
 10
33453.17522169168
 20
10053.8125
 30
0.0
 40
240.0
  1
　4. 法適合の検算結果は 03_計算書「法令適合検算書」を参照。
  7
DIP
 11
33453.17522169168
 21
10053.8125
 31
0.0
100
AcDbText
  0
TEXT
  5
24A
330
17
100
AcDbEntity
  8
A-ANNO
100
AcDbText
 10
33453.17522169168
 20
9621.8125
 30
0.0
 40
240.0
  1
　　同書で『未検算』とした項目は合格ではない。
  7
DIP
 11
33453.17522169168
 21
9621.8125
 31
0.0
100
AcDbText
  0
ENDSEC
  0
SECTION
  2
OBJECTS
  0
DICTIONARY
  5
A
330
0
100
AcDbDictionary
281
1
  3
ACAD_COLOR
350
B
  3
ACAD_GROUP
350
C
  3
ACAD_LAYOUT
350
D
  3
ACAD_MATERIAL
350
E
  3
ACAD_MLEADERSTYLE
350
F
  3
ACAD_MLINESTYLE
350
10
  3
ACAD_PLOTSETTINGS
350
11
  3
ACAD_PLOTSTYLENAME
350
12
  3
ACAD_SCALELIST
350
14
  3
ACAD_TABLESTYLE
350
15
  3
ACAD_VISUALSTYLE
350
16
  3
EZDXF_META
350
2D
  0
DICTIONARY
  5
B
330
A
100
AcDbDictionary
281
1
  0
DICTIONARY
  5
C
330
A
100
AcDbDictionary
281
1
  0
DICTIONARY
  5
D
330
A
100
AcDbDictionary
281
1
  3
Model
350
1A
  3
Layout1
350
1E
  0
DICTIONARY
  5
E
330
A
100
AcDbDictionary
281
1
  3
ByBlock
350
1F
  3
ByLayer
350
20
  3
Global
350
21
  0
DICTIONARY
  5
F
330
A
100
AcDbDictionary
281
1
  3
Standard
350
2C
  0
DICTIONARY
  5
10
330
A
100
AcDbDictionary
281
1
  3
Standard
350
22
  0
DICTIONARY
  5
11
330
A
100
AcDbDictionary
281
1
  0
ACDBDICTIONARYWDFLT
  5
12
330
A
100
AcDbDictionary
281
1
  3
Normal
350
13
100
AcDbDictionaryWithDefault
340
13
  0
ACDBPLACEHOLDER
  5
13
330
12
  0
DICTIONARY
  5
14
330
A
100
AcDbDictionary
281
1
  0
DICTIONARY
  5
15
330
A
100
AcDbDictionary
281
1
  0
DICTIONARY
  5
16
330
A
100
AcDbDictionary
281
1
  3
2dWireframe
350
5A
  3
Basic
350
5B
  3
Brighten
350
5C
  3
ColorChange
350
5D
  3
Conceptual
350
5E
  3
Dim
350
5F
  3
EdgeColorOff
350
60
  3
Facepattern
350
61
  3
Flat
350
62
  3
FlatWithEdges
350
63
  3
Gouraud
350
64
  3
GouraudWithEdges
350
65
  3
Hidden
350
66
  3
JitterOff
350
67
  3
Linepattern
350
68
  3
Modeling
350
69
  3
OverhangOff
350
6A
  3
Realistic
350
6B
  3
Shaded
350
6C
  3
Shaded with edges
350
6D
  3
Shades of Gray
350
6E
  3
Sketchy
350
6F
  3
Thicken
350
70
  3
Wireframe
350
71
  3
X-Ray
350
72
  0
LAYOUT
  5
1A
330
D
100
AcDbPlotSettings
  1

  4
A3
  6

 40
7.5
 41
20.0
 42
7.5
 43
20.0
 44
420.0
 45
297.0
 46
0.0
 47
0.0
 48
0.0
 49
0.0
140
0.0
141
0.0
142
1.0
143
1.0
 70
1024
 72
1
 73
0
 74
5
  7

 75
16
 76
0
 77
2
 78
300
147
1.0
148
0.0
149
0.0
100
AcDbLayout
  1
Model
 70
1
 71
0
 10
0.0
 20
0.0
 11
420.0
 21
297.0
 12
0.0
 22
0.0
 32
0.0
 14
1e+20
 24
1e+20
 34
1e+20
 15
-1e+20
 25
-1e+20
 35
-1e+20
146
0.0
 13
0.0
 23
0.0
 33
0.0
 16
1.0
 26
0.0
 36
0.0
 17
0.0
 27
1.0
 37
0.0
 76
1
330
17
  0
LAYOUT
  5
1E
330
D
100
AcDbPlotSettings
  1

  4
A3
  6

 40
7.5
 41
20.0
 42
7.5
 43
20.0
 44
420.0
 45
297.0
 46
0.0
 47
0.0
 48
0.0
 49
0.0
140
0.0
141
0.0
142
1.0
143
1.0
 70
0
 72
1
 73
0
 74
5
  7

 75
16
 76
0
 77
2
 78
300
147
1.0
148
0.0
149
0.0
100
AcDbLayout
  1
Layout1
 70
1
 71
1
 10
0.0
 20
0.0
 11
420.0
 21
297.0
 12
0.0
 22
0.0
 32
0.0
 14
1e+20
 24
1e+20
 34
1e+20
 15
-1e+20
 25
-1e+20
 35
-1e+20
146
0.0
 13
0.0
 23
0.0
 33
0.0
 16
1.0
 26
0.0
 36
0.0
 17
0.0
 27
1.0
 37
0.0
 76
1
330
1B
  0
MATERIAL
  5
1F
102
{ACAD_REACTORS
330
E
102
}
330
E
100
AcDbMaterial
  1
ByBlock
  2

 70
0
 40
1.0
 71
1
 41
1.0
 91
-1023410177
 42
1.0
 72
1
  3

 73
1
 74
1
 75
1
 44
0.5
 73
0
 45
1.0
 46
1.0
 77
1
  4

 78
1
 79
1
170
1
 48
1.0
171
1
  6

172
1
173
1
174
1
140
1.0
141
1.0
175
1
  7

176
1
177
1
178
1
143
1.0
179
1
  8

270
1
271
1
272
1
145
1.0
146
1.0
273
1
  9

274
1
275
1
276
1
 42
1.0
 72
1
  3

 73
1
 74
1
 75
1
 94
63
  0
MATERIAL
  5
20
102
{ACAD_REACTORS
330
E
102
}
330
E
100
AcDbMaterial
  1
ByLayer
  2

 70
0
 40
1.0
 71
1
 41
1.0
 91
-1023410177
 42
1.0
 72
1
  3

 73
1
 74
1
 75
1
 44
0.5
 73
0
 45
1.0
 46
1.0
 77
1
  4

 78
1
 79
1
170
1
 48
1.0
171
1
  6

172
1
173
1
174
1
140
1.0
141
1.0
175
1
  7

176
1
177
1
178
1
143
1.0
179
1
  8

270
1
271
1
272
1
145
1.0
146
1.0
273
1
  9

274
1
275
1
276
1
 42
1.0
 72
1
  3

 73
1
 74
1
 75
1
 94
63
  0
MATERIAL
  5
21
102
{ACAD_REACTORS
330
E
102
}
330
E
100
AcDbMaterial
  1
Global
  2

 70
0
 40
1.0
 71
1
 41
1.0
 91
-1023410177
 42
1.0
 72
1
  3

 73
1
 74
1
 75
1
 44
0.5
 73
0
 45
1.0
 46
1.0
 77
1
  4

 78
1
 79
1
170
1
 48
1.0
171
1
  6

172
1
173
1
174
1
140
1.0
141
1.0
175
1
  7

176
1
177
1
178
1
143
1.0
179
1
  8

270
1
271
1
272
1
145
1.0
146
1.0
273
1
  9

274
1
275
1
276
1
 42
1.0
 72
1
  3

 73
1
 74
1
 75
1
 94
63
  0
MLINESTYLE
  5
22
102
{ACAD_REACTORS
330
10
102
}
330
10
100
AcDbMlineStyle
  2
Standard
 70
0
  3

 62
256
 51
90.0
 52
90.0
 71
2
 49
0.5
 62
256
  6
BYLAYER
 49
-0.5
 62
256
  6
BYLAYER
  0
MLEADERSTYLE
  5
2C
102
{ACAD_REACTORS
330
F
102
}
330
F
100
AcDbMLeaderStyle
179
2
170
2
171
1
172
0
 90
2
 40
0.0
 41
0.0
173
1
 91
-1056964608
 92
-2
290
1
 42
2.0
291
1
 43
8.0
  3
Standard
 44
4.0
300

342
29
174
1
175
1
176
0
178
1
 93
-1056964608
 45
4.0
292
0
297
0
 46
4.0
 94
-1056964608
 47
1.0
 49
1.0
140
1.0
294
1
141
0.0
177
0
142
1.0
295
0
296
0
143
3.75
271
0
272
9
273
9
  0
DICTIONARY
  5
2D
330
A
100
AcDbDictionary
280
1
281
1
  3
CREATED_BY_EZDXF
350
2E
  3
WRITTEN_BY_EZDXF
350
24D
  0
DICTIONARYVAR
  5
2E
330
2D
100
DictionaryVariables
280
0
  1
1.4.4 @ 2026-09-16T04:58:21.269765+00:00
  0
VISUALSTYLE
  5
5A
102
{ACAD_REACTORS
330
16
102
}
330
16
100
AcDbVisualStyle
  2
2dWireframe
 70
4
177
3
291
0
 70
58
 90
2
176
1
 90
2
176
1
 90
0
176
1
 90
0
176
1
 40
0.6
176
1
 40
30.0
176
1
 62
7
420
16777215
176
1
 90
1
176
1
 90
4
176
1
 62
7
176
1
 62
257
176
1
 90
1
176
1
 90
1
176
1
 40
1.0
176
1
 90
8
176
1
 62
7
176
1
 40
1.0
176
1
 90
1
176
1
 90
6
176
1
 90
2
176
1
 62
7
176
1
 90
5
176
1
 90
0
176
1
 90
0
176
1
290
0
176
1
 90
1
176
1
 40
0.0
176
1
 90
0
176
1
290
1
176
1
290
1
176
1
290
0
176
1
290
0
176
1
290
0
176
1
290
0
176
1
290
0
176
1
290
0
176
1
290
0
176
1
 90
50
176
1
 40
0.0
176
1
 40
1.0
176
1
 90
0
176
1
 62
18
420
0
176
1
 90
50
176
1
 90
3
176
1
 62
5
420
255
176
1
290
0
176
1
 90
50
176
1
 90
50
176
1
 90
50
176
1
290
0
176
1
 90
50
176
1
 62
256
176
0
 40
1.0
176
0
 90
2
176
1
  1
strokes_ogs.tif
176
1
290
0
176
1
 40
1.0
176
1
 40
1.0
176
1
  0
VISUALSTYLE
  5
5B
102
{ACAD_REACTORS
330
16
102
}
330
16
100
AcDbVisualStyle
  2
Basic
 70
7
177
3
291
1
 70
58
 90
2
176
1
 90
2
176
1
 90
0
176
1
 90
1
176
1
 40
0.6
176
1
 40
30.0
176
1
 62
7
420
16777215
176
1
 90
1
176
1
 90
4
176
1
 62
7
176
1
 62
257
176
1
 90
1
176
1
 90
1
176
1
 40
1.0
176
1
 90
8
176
1
 62
7
176
1
 40
1.0
176
1
 90
1
176
1
 90
6
176
1
 90
2
176
1
 62
7
176
1
 90
5
176
1
 90
0
176
1
 90
0
176
1
290
0
176
1
 90
1
176
1
 40
0.0
176
1
 90
0
176
1
290
0
176
1
290
1
176
1
290
1
176
1
290
0
176
1
290
0
176
1
290
0
176
1
290
0
176
1
290
0
176
1
290
0
176
1
 90
50
176
1
 40
0.0
176
1
 40
1.0
176
1
 90
0
176
1
 62
18
420
0
176
1
 90
50
176
1
 90
3
176
1
 62
5
420
255
176
1
290
0
176
1
 90
50
176
1
 90
50
176
1
 90
50
176
1
290
0
176
1
 90
50
176
1
 62
256
176
0
 40
1.0
176
0
 90
2
176
1
  1
strokes_ogs.tif
176
1
290
0
176
1
 40
1.0
176
1
 40
1.0
176
1
  0
VISUALSTYLE
  5
5C
102
{ACAD_REACTORS
330
16
102
}
330
16
100
AcDbVisualStyle
  2
Brighten
 70
12
177
3
291
1
 70
58
 90
2
176
1
 90
2
176
1
 90
0
176
1
 90
2
176
1
 40
0.6
176
1
 40
30.0
176
1
 62
7
420
16777215
176
1
 90
1
176
1
 90
4
176
1
 62
7
176
1
 62
257
176
1
 90
1
176
1
 90
1
176
1
 40
1.0
176
1
 90
8
176
1
 62
7
176
1
 40
1.0
176
1
 90
1
176
1
 90
6
176
1
 90
2
176
1
 62
7
176
1
 90
5
176
1
 90
0
176
1
 90
0
176
1
290
0
176
1
 90
1
176
1
 40
0.0
176
1
 90
0
176
1
290
0
176
1
290
1
176
1
290
1
176
1
290
0
176
1
290
0
176
1
290
0
176
1
290
0
176
1
290
0
176
1
290
0
176
1
 90
50
176
1
 40
0.0
176
1
 40
1.0
176
1
 90
0
176
1
 62
18
420
0
176
1
 90
50
176
1
 90
3
176
1
 62
5
420
255
176
1
290
0
176
1
 90
50
176
1
 90
50
176
1
 90
50
176
1
290
0
176
1
 90
50
176
1
 62
256
176
0
 40
1.0
176
0
 90
2
176
1
  1
strokes_ogs.tif
176
1
290
0
176
1
 40
1.0
176
1
 40
1.0
176
1
  0
VISUALSTYLE
  5
5D
102
{ACAD_REACTORS
330
16
102
}
330
16
100
AcDbVisualStyle
  2
ColorChange
 70
16
177
3
291
1
 70
58
 90
2
176
1
 90
2
176
1
 90
0
176
1
 90
2
176
1
 40
0.6
176
1
 40
30.0
176
1
 62
7
420
16777215
176
1
 90
1
176
1
 90
4
176
1
 62
7
176
1
 62
257
176
1
 90
1
176
1
 90
1
176
1
 40
1.0
176
1
 90
8
176
1
 62
7
176
1
 40
1.0
176
1
 90
1
176
1
 90
6
176
1
 90
2
176
1
 62
7
176
1
 90
5
176
1
 90
0
176
1
 90
0
176
1
290
0
176
1
 90
1
176
1
 40
0.0
176
1
 90
0
176
1
290
0
176
1
290
1
176
1
290
1
176
1
290
0
176
1
290
0
176
1
290
0
176
1
290
0
176
1
290
0
176
1
290
0
176
1
 90
50
176
1
 40
0.0
176
1
 40
1.0
176
1
 90
0
176
1
 62
18
420
0
176
1
 90
50
176
1
 90
3
176
1
 62
5
420
255
176
1
290
0
176
1
 90
50
176
1
 90
50
176
1
 90
50
176
1
290
0
176
1
 90
50
176
1
 62
256
176
0
 40
1.0
176
0
 90
2
176
1
  1
strokes_ogs.tif
176
1
290
0
176
1
 40
1.0
176
1
 40
1.0
176
1
  0
VISUALSTYLE
  5
5E
102
{ACAD_REACTORS
330
16
102
}
330
16
100
AcDbVisualStyle
  2
Conceptual
 70
9
177
3
291
0
 70
58
 90
2
176
1
 90
2
176
1
 90
0
176
1
 90
3
176
1
 40
0.6
176
1
 40
30.0
176
1
 62
7
420
16777215
176
1
 90
1
176
1
 90
4
176
1
 62
7
176
1
 62
257
176
1
 90
1
176
1
 90
1
176
1
 40
1.0
176
1
 90
8
176
1
 62
7
176
1
 40
1.0
176
1
 90
1
176
1
 90
6
176
1
 90
2
176
1
 62
7
176
1
 90
5
176
1
 90
0
176
1
 90
0
176
1
290
0
176
1
 90
1
176
1
 40
0.0
176
1
 90
0
176
1
290
0
176
1
290
1
176
1
290
1
176
1
290
0
176
1
290
0
176
1
290
0
176
1
290
0
176
1
290
0
176
1
290
0
176
1
 90
50
176
1
 40
0.0
176
1
 40
1.0
176
1
 90
0
176
1
 62
18
420
0
176
1
 90
50
176
1
 90
3
176
1
 62
5
420
255
176
1
290
0
176
1
 90
50
176
1
 90
50
176
1
 90
50
176
1
290
0
176
1
 90
50
176
1
 62
256
176
0
 40
1.0
176
0
 90
2
176
1
  1
strokes_ogs.tif
176
1
290
0
176
1
 40
1.0
176
1
 40
1.0
176
1
  0
VISUALSTYLE
  5
5F
102
{ACAD_REACTORS
330
16
102
}
330
16
100
AcDbVisualStyle
  2
Dim
 70
11
177
3
291
1
 70
58
 90
2
176
1
 90
2
176
1
 90
0
176
1
 90
2
176
1
 40
0.6
176
1
 40
30.0
176
1
 62
7
420
16777215
176
1
 90
1
176
1
 90
4
176
1
 62
7
176
1
 62
257
176
1
 90
1
176
1
 90
1
176
1
 40
1.0
176
1
 90
8
176
1
 62
7
176
1
 40
1.0
176
1
 90
1
176
1
 90
6
176
1
 90
2
176
1
 62
7
176
1
 90
5
176
1
 90
0
176
1
 90
0
176
1
290
0
176
1
 90
1
176
1
 40
0.0
176
1
 90
0
176
1
290
0
176
1
290
1
176
1
290
1
176
1
290
0
176
1
290
0
176
1
290
0
176
1
290
0
176
1
290
0
176
1
290
0
176
1
 90
50
176
1
 40
0.0
176
1
 40
1.0
176
1
 90
0
176
1
 62
18
420
0
176
1
 90
50
176
1
 90
3
176
1
 62
5
420
255
176
1
290
0
176
1
 90
50
176
1
 90
50
176
1
 90
50
176
1
290
0
176
1
 90
50
176
1
 62
256
176
0
 40
1.0
176
0
 90
2
176
1
  1
strokes_ogs.tif
176
1
290
0
176
1
 40
1.0
176
1
 40
1.0
176
1
  0
VISUALSTYLE
  5
60
102
{ACAD_REACTORS
330
16
102
}
330
16
100
AcDbVisualStyle
  2
EdgeColorOff
 70
22
177
3
291
1
 70
58
 90
2
176
1
 90
2
176
1
 90
0
176
1
 90
2
176
1
 40
0.6
176
1
 40
30.0
176
1
 62
7
420
16777215
176
1
 90
1
176
1
 90
4
176
1
 62
7
176
1
 62
257
176
1
 90
1
176
1
 90
1
176
1
 40
1.0
176
1
 90
8
176
1
 62
7
176
1
 40
1.0
176
1
 90
1
176
1
 90
6
176
1
 90
2
176
1
 62
7
176
1
 90
5
176
1
 90
0
176
1
 90
0
176
1
290
0
176
1
 90
1
176
1
 40
0.0
176
1
 90
0
176
1
290
0
176
1
290
1
176
1
290
1
176
1
290
0
176
1
290
0
176
1
290
0
176
1
290
0
176
1
290
0
176
1
290
0
176
1
 90
50
176
1
 40
0.0
176
1
 40
1.0
176
1
 90
0
176
1
 62
18
420
0
176
1
 90
50
176
1
 90
3
176
1
 62
5
420
255
176
1
290
0
176
1
 90
50
176
1
 90
50
176
1
 90
50
176
1
290
0
176
1
 90
50
176
1
 62
256
176
0
 40
1.0
176
0
 90
2
176
1
  1
strokes_ogs.tif
176
1
290
0
176
1
 40
1.0
176
1
 40
1.0
176
1
  0
VISUALSTYLE
  5
61
102
{ACAD_REACTORS
330
16
102
}
330
16
100
AcDbVisualStyle
  2
Facepattern
 70
15
177
3
291
1
 70
58
 90
2
176
1
 90
2
176
1
 90
0
176
1
 90
2
176
1
 40
0.6
176
1
 40
30.0
176
1
 62
7
420
16777215
176
1
 90
1
176
1
 90
4
176
1
 62
7
176
1
 62
257
176
1
 90
1
176
1
 90
1
176
1
 40
1.0
176
1
 90
8
176
1
 62
7
176
1
 40
1.0
176
1
 90
1
176
1
 90
6
176
1
 90
2
176
1
 62
7
176
1
 90
5
176
1
 90
0
176
1
 90
0
176
1
290
0
176
1
 90
1
176
1
 40
0.0
176
1
 90
0
176
1
290
0
176
1
290
1
176
1
290
1
176
1
290
0
176
1
290
0
176
1
290
0
176
1
290
0
176
1
290
0
176
1
290
0
176
1
 90
50
176
1
 40
0.0
176
1
 40
1.0
176
1
 90
0
176
1
 62
18
420
0
176
1
 90
50
176
1
 90
3
176
1
 62
5
420
255
176
1
290
0
176
1
 90
50
176
1
 90
50
176
1
 90
50
176
1
290
0
176
1
 90
50
176
1
 62
256
176
0
 40
1.0
176
0
 90
2
176
1
  1
strokes_ogs.tif
176
1
290
0
176
1
 40
1.0
176
1
 40
1.0
176
1
  0
VISUALSTYLE
  5
62
102
{ACAD_REACTORS
330
16
102
}
330
16
100
AcDbVisualStyle
  2
Flat
 70
0
177
3
291
1
 70
58
 90
2
176
1
 90
2
176
1
 90
0
176
1
 90
2
176
1
 40
0.6
176
1
 40
30.0
176
1
 62
7
420
16777215
176
1
 90
1
176
1
 90
4
176
1
 62
7
176
1
 62
257
176
1
 90
1
176
1
 90
1
176
1
 40
1.0
176
1
 90
8
176
1
 62
7
176
1
 40
1.0
176
1
 90
1
176
1
 90
6
176
1
 90
2
176
1
 62
7
176
1
 90
5
176
1
 90
0
176
1
 90
0
176
1
290
0
176
1
 90
1
176
1
 40
0.0
176
1
 90
0
176
1
290
0
176
1
290
1
176
1
290
1
176
1
290
0
176
1
290
0
176
1
290
0
176
1
290
0
176
1
290
0
176
1
290
0
176
1
 90
50
176
1
 40
0.0
176
1
 40
1.0
176
1
 90
0
176
1
 62
18
420
0
176
1
 90
50
176
1
 90
3
176
1
 62
5
420
255
176
1
290
0
176
1
 90
50
176
1
 90
50
176
1
 90
50
176
1
290
0
176
1
 90
50
176
1
 62
256
176
0
 40
1.0
176
0
 90
2
176
1
  1
strokes_ogs.tif
176
1
290
0
176
1
 40
1.0
176
1
 40
1.0
176
1
  0
VISUALSTYLE
  5
63
102
{ACAD_REACTORS
330
16
102
}
330
16
100
AcDbVisualStyle
  2
FlatWithEdges
 70
1
177
3
291
1
 70
58
 90
2
176
1
 90
2
176
1
 90
0
176
1
 90
2
176
1
 40
0.6
176
1
 40
30.0
176
1
 62
7
420
16777215
176
1
 90
1
176
1
 90
4
176
1
 62
7
176
1
 62
257
176
1
 90
1
176
1
 90
1
176
1
 40
1.0
176
1
 90
8
176
1
 62
7
176
1
 40
1.0
176
1
 90
1
176
1
 90
6
176
1
 90
2
176
1
 62
7
176
1
 90
5
176
1
 90
0
176
1
 90
0
176
1
290
0
176
1
 90
1
176
1
 40
0.0
176
1
 90
0
176
1
290
0
176
1
290
1
176
1
290
1
176
1
290
0
176
1
290
0
176
1
290
0
176
1
290
0
176
1
290
0
176
1
290
0
176
1
 90
50
176
1
 40
0.0
176
1
 40
1.0
176
1
 90
0
176
1
 62
18
420
0
176
1
 90
50
176
1
 90
3
176
1
 62
5
420
255
176
1
290
0
176
1
 90
50
176
1
 90
50
176
1
 90
50
176
1
290
0
176
1
 90
50
176
1
 62
256
176
0
 40
1.0
176
0
 90
2
176
1
  1
strokes_ogs.tif
176
1
290
0
176
1
 40
1.0
176
1
 40
1.0
176
1
  0
VISUALSTYLE
  5
64
102
{ACAD_REACTORS
330
16
102
}
330
16
100
AcDbVisualStyle
  2
Gouraud
 70
2
177
3
291
1
 70
58
 90
2
176
1
 90
2
176
1
 90
0
176
1
 90
2
176
1
 40
0.6
176
1
 40
30.0
176
1
 62
7
420
16777215
176
1
 90
1
176
1
 90
4
176
1
 62
7
176
1
 62
257
176
1
 90
1
176
1
 90
1
176
1
 40
1.0
176
1
 90
8
176
1
 62
7
176
1
 40
1.0
176
1
 90
1
176
1
 90
6
176
1
 90
2
176
1
 62
7
176
1
 90
5
176
1
 90
0
176
1
 90
0
176
1
290
0
176
1
 90
1
176
1
 40
0.0
176
1
 90
0
176
1
290
0
176
1
290
1
176
1
290
1
176
1
290
0
176
1
290
0
176
1
290
0
176
1
290
0
176
1
290
0
176
1
290
0
176
1
 90
50
176
1
 40
0.0
176
1
 40
1.0
176
1
 90
0
176
1
 62
18
420
0
176
1
 90
50
176
1
 90
3
176
1
 62
5
420
255
176
1
290
0
176
1
 90
50
176
1
 90
50
176
1
 90
50
176
1
290
0
176
1
 90
50
176
1
 62
256
176
0
 40
1.0
176
0
 90
2
176
1
  1
strokes_ogs.tif
176
1
290
0
176
1
 40
1.0
176
1
 40
1.0
176
1
  0
VISUALSTYLE
  5
65
102
{ACAD_REACTORS
330
16
102
}
330
16
100
AcDbVisualStyle
  2
GouraudWithEdges
 70
3
177
3
291
1
 70
58
 90
2
176
1
 90
2
176
1
 90
0
176
1
 90
2
176
1
 40
0.6
176
1
 40
30.0
176
1
 62
7
420
16777215
176
1
 90
1
176
1
 90
4
176
1
 62
7
176
1
 62
257
176
1
 90
1
176
1
 90
1
176
1
 40
1.0
176
1
 90
8
176
1
 62
7
176
1
 40
1.0
176
1
 90
1
176
1
 90
6
176
1
 90
2
176
1
 62
7
176
1
 90
5
176
1
 90
0
176
1
 90
0
176
1
290
0
176
1
 90
1
176
1
 40
0.0
176
1
 90
0
176
1
290
0
176
1
290
1
176
1
290
1
176
1
290
0
176
1
290
0
176
1
290
0
176
1
290
0
176
1
290
0
176
1
290
0
176
1
 90
50
176
1
 40
0.0
176
1
 40
1.0
176
1
 90
0
176
1
 62
18
420
0
176
1
 90
50
176
1
 90
3
176
1
 62
5
420
255
176
1
290
0
176
1
 90
50
176
1
 90
50
176
1
 90
50
176
1
290
0
176
1
 90
50
176
1
 62
256
176
0
 40
1.0
176
0
 90
2
176
1
  1
strokes_ogs.tif
176
1
290
0
176
1
 40
1.0
176
1
 40
1.0
176
1
  0
VISUALSTYLE
  5
66
102
{ACAD_REACTORS
330
16
102
}
330
16
100
AcDbVisualStyle
  2
Hidden
 70
6
177
3
291
0
 70
58
 90
2
176
1
 90
2
176
1
 90
0
176
1
 90
1
176
1
 40
0.6
176
1
 40
30.0
176
1
 62
7
420
16777215
176
1
 90
1
176
1
 90
4
176
1
 62
7
176
1
 62
257
176
1
 90
1
176
1
 90
1
176
1
 40
1.0
176
1
 90
8
176
1
 62
7
176
1
 40
1.0
176
1
 90
1
176
1
 90
6
176
1
 90
2
176
1
 62
7
176
1
 90
5
176
1
 90
0
176
1
 90
0
176
1
290
0
176
1
 90
1
176
1
 40
0.0
176
1
 90
0
176
1
290
0
176
1
290
1
176
1
290
1
176
1
290
0
176
1
290
0
176
1
290
0
176
1
290
0
176
1
290
0
176
1
290
0
176
1
 90
50
176
1
 40
0.0
176
1
 40
1.0
176
1
 90
0
176
1
 62
18
420
0
176
1
 90
50
176
1
 90
3
176
1
 62
5
420
255
176
1
290
0
176
1
 90
50
176
1
 90
50
176
1
 90
50
176
1
290
0
176
1
 90
50
176
1
 62
256
176
0
 40
1.0
176
0
 90
2
176
1
  1
strokes_ogs.tif
176
1
290
0
176
1
 40
1.0
176
1
 40
1.0
176
1
  0
VISUALSTYLE
  5
67
102
{ACAD_REACTORS
330
16
102
}
330
16
100
AcDbVisualStyle
  2
JitterOff
 70
20
177
3
291
1
 70
58
 90
2
176
1
 90
2
176
1
 90
0
176
1
 90
2
176
1
 40
0.6
176
1
 40
30.0
176
1
 62
7
420
16777215
176
1
 90
1
176
1
 90
4
176
1
 62
7
176
1
 62
257
176
1
 90
1
176
1
 90
1
176
1
 40
1.0
176
1
 90
8
176
1
 62
7
176
1
 40
1.0
176
1
 90
1
176
1
 90
6
176
1
 90
2
176
1
 62
7
176
1
 90
5
176
1
 90
0
176
1
 90
0
176
1
290
0
176
1
 90
1
176
1
 40
0.0
176
1
 90
0
176
1
290
0
176
1
290
1
176
1
290
1
176
1
290
0
176
1
290
0
176
1
290
0
176
1
290
0
176
1
290
0
176
1
290
0
176
1
 90
50
176
1
 40
0.0
176
1
 40
1.0
176
1
 90
0
176
1
 62
18
420
0
176
1
 90
50
176
1
 90
3
176
1
 62
5
420
255
176
1
290
0
176
1
 90
50
176
1
 90
50
176
1
 90
50
176
1
290
0
176
1
 90
50
176
1
 62
256
176
0
 40
1.0
176
0
 90
2
176
1
  1
strokes_ogs.tif
176
1
290
0
176
1
 40
1.0
176
1
 40
1.0
176
1
  0
VISUALSTYLE
  5
68
102
{ACAD_REACTORS
330
16
102
}
330
16
100
AcDbVisualStyle
  2
Linepattern
 70
14
177
3
291
1
 70
58
 90
2
176
1
 90
2
176
1
 90
0
176
1
 90
2
176
1
 40
0.6
176
1
 40
30.0
176
1
 62
7
420
16777215
176
1
 90
1
176
1
 90
4
176
1
 62
7
176
1
 62
257
176
1
 90
1
176
1
 90
1
176
1
 40
1.0
176
1
 90
8
176
1
 62
7
176
1
 40
1.0
176
1
 90
1
176
1
 90
6
176
1
 90
2
176
1
 62
7
176
1
 90
5
176
1
 90
0
176
1
 90
0
176
1
290
0
176
1
 90
1
176
1
 40
0.0
176
1
 90
0
176
1
290
0
176
1
290
1
176
1
290
1
176
1
290
0
176
1
290
0
176
1
290
0
176
1
290
0
176
1
290
0
176
1
290
0
176
1
 90
50
176
1
 40
0.0
176
1
 40
1.0
176
1
 90
0
176
1
 62
18
420
0
176
1
 90
50
176
1
 90
3
176
1
 62
5
420
255
176
1
290
0
176
1
 90
50
176
1
 90
50
176
1
 90
50
176
1
290
0
176
1
 90
50
176
1
 62
256
176
0
 40
1.0
176
0
 90
2
176
1
  1
strokes_ogs.tif
176
1
290
0
176
1
 40
1.0
176
1
 40
1.0
176
1
  0
VISUALSTYLE
  5
69
102
{ACAD_REACTORS
330
16
102
}
330
16
100
AcDbVisualStyle
  2
Modeling
 70
10
177
3
291
0
 70
58
 90
2
176
1
 90
2
176
1
 90
0
176
1
 90
2
176
1
 40
0.6
176
1
 40
30.0
176
1
 62
7
420
16777215
176
1
 90
1
176
1
 90
4
176
1
 62
7
176
1
 62
257
176
1
 90
1
176
1
 90
1
176
1
 40
1.0
176
1
 90
8
176
1
 62
7
176
1
 40
1.0
176
1
 90
1
176
1
 90
6
176
1
 90
2
176
1
 62
7
176
1
 90
5
176
1
 90
0
176
1
 90
0
176
1
290
0
176
1
 90
1
176
1
 40
0.0
176
1
 90
0
176
1
290
0
176
1
290
1
176
1
290
1
176
1
290
0
176
1
290
0
176
1
290
0
176
1
290
0
176
1
290
0
176
1
290
0
176
1
 90
50
176
1
 40
0.0
176
1
 40
1.0
176
1
 90
0
176
1
 62
18
420
0
176
1
 90
50
176
1
 90
3
176
1
 62
5
420
255
176
1
290
0
176
1
 90
50
176
1
 90
50
176
1
 90
50
176
1
290
0
176
1
 90
50
176
1
 62
256
176
0
 40
1.0
176
0
 90
2
176
1
  1
strokes_ogs.tif
176
1
290
0
176
1
 40
1.0
176
1
 40
1.0
176
1
  0
VISUALSTYLE
  5
6A
102
{ACAD_REACTORS
330
16
102
}
330
16
100
AcDbVisualStyle
  2
OverhangOff
 70
21
177
3
291
1
 70
58
 90
2
176
1
 90
2
176
1
 90
0
176
1
 90
2
176
1
 40
0.6
176
1
 40
30.0
176
1
 62
7
420
16777215
176
1
 90
1
176
1
 90
4
176
1
 62
7
176
1
 62
257
176
1
 90
1
176
1
 90
1
176
1
 40
1.0
176
1
 90
8
176
1
 62
7
176
1
 40
1.0
176
1
 90
1
176
1
 90
6
176
1
 90
2
176
1
 62
7
176
1
 90
5
176
1
 90
0
176
1
 90
0
176
1
290
0
176
1
 90
1
176
1
 40
0.0
176
1
 90
0
176
1
290
0
176
1
290
1
176
1
290
1
176
1
290
0
176
1
290
0
176
1
290
0
176
1
290
0
176
1
290
0
176
1
290
0
176
1
 90
50
176
1
 40
0.0
176
1
 40
1.0
176
1
 90
0
176
1
 62
18
420
0
176
1
 90
50
176
1
 90
3
176
1
 62
5
420
255
176
1
290
0
176
1
 90
50
176
1
 90
50
176
1
 90
50
176
1
290
0
176
1
 90
50
176
1
 62
256
176
0
 40
1.0
176
0
 90
2
176
1
  1
strokes_ogs.tif
176
1
290
0
176
1
 40
1.0
176
1
 40
1.0
176
1
  0
VISUALSTYLE
  5
6B
102
{ACAD_REACTORS
330
16
102
}
330
16
100
AcDbVisualStyle
  2
Realistic
 70
8
177
3
291
0
 70
58
 90
2
176
1
 90
2
176
1
 90
0
176
1
 90
2
176
1
 40
0.6
176
1
 40
30.0
176
1
 62
7
420
16777215
176
1
 90
1
176
1
 90
4
176
1
 62
7
176
1
 62
257
176
1
 90
1
176
1
 90
1
176
1
 40
1.0
176
1
 90
8
176
1
 62
7
176
1
 40
1.0
176
1
 90
1
176
1
 90
6
176
1
 90
2
176
1
 62
7
176
1
 90
5
176
1
 90
0
176
1
 90
0
176
1
290
0
176
1
 90
1
176
1
 40
0.0
176
1
 90
0
176
1
290
0
176
1
290
1
176
1
290
1
176
1
290
0
176
1
290
0
176
1
290
0
176
1
290
0
176
1
290
0
176
1
290
0
176
1
 90
50
176
1
 40
0.0
176
1
 40
1.0
176
1
 90
0
176
1
 62
18
420
0
176
1
 90
50
176
1
 90
3
176
1
 62
5
420
255
176
1
290
0
176
1
 90
50
176
1
 90
50
176
1
 90
50
176
1
290
0
176
1
 90
50
176
1
 62
256
176
0
 40
1.0
176
0
 90
2
176
1
  1
strokes_ogs.tif
176
1
290
0
176
1
 40
1.0
176
1
 40
1.0
176
1
  0
VISUALSTYLE
  5
6C
102
{ACAD_REACTORS
330
16
102
}
330
16
100
AcDbVisualStyle
  2
Shaded
 70
27
177
3
291
0
 70
58
 90
2
176
1
 90
2
176
1
 90
0
176
1
 90
2
176
1
 40
0.6
176
1
 40
30.0
176
1
 62
7
420
16777215
176
1
 90
1
176
1
 90
4
176
1
 62
7
176
1
 62
257
176
1
 90
1
176
1
 90
1
176
1
 40
1.0
176
1
 90
8
176
1
 62
7
176
1
 40
1.0
176
1
 90
1
176
1
 90
6
176
1
 90
2
176
1
 62
7
176
1
 90
5
176
1
 90
0
176
1
 90
0
176
1
290
0
176
1
 90
1
176
1
 40
0.0
176
1
 90
0
176
1
290
0
176
1
290
1
176
1
290
1
176
1
290
0
176
1
290
0
176
1
290
0
176
1
290
0
176
1
290
0
176
1
290
0
176
1
 90
50
176
1
 40
0.0
176
1
 40
1.0
176
1
 90
0
176
1
 62
18
420
0
176
1
 90
50
176
1
 90
3
176
1
 62
5
420
255
176
1
290
0
176
1
 90
50
176
1
 90
50
176
1
 90
50
176
1
290
0
176
1
 90
50
176
1
 62
256
176
0
 40
1.0
176
0
 90
2
176
1
  1
strokes_ogs.tif
176
1
290
0
176
1
 40
1.0
176
1
 40
1.0
176
1
  0
VISUALSTYLE
  5
6D
102
{ACAD_REACTORS
330
16
102
}
330
16
100
AcDbVisualStyle
  2
Shaded with edges
 70
26
177
3
291
0
 70
58
 90
2
176
1
 90
2
176
1
 90
0
176
1
 90
2
176
1
 40
0.6
176
1
 40
30.0
176
1
 62
7
420
16777215
176
1
 90
1
176
1
 90
4
176
1
 62
7
176
1
 62
257
176
1
 90
1
176
1
 90
1
176
1
 40
1.0
176
1
 90
8
176
1
 62
7
176
1
 40
1.0
176
1
 90
1
176
1
 90
6
176
1
 90
2
176
1
 62
7
176
1
 90
5
176
1
 90
0
176
1
 90
0
176
1
290
0
176
1
 90
1
176
1
 40
0.0
176
1
 90
0
176
1
290
0
176
1
290
1
176
1
290
1
176
1
290
0
176
1
290
0
176
1
290
0
176
1
290
0
176
1
290
0
176
1
290
0
176
1
 90
50
176
1
 40
0.0
176
1
 40
1.0
176
1
 90
0
176
1
 62
18
420
0
176
1
 90
50
176
1
 90
3
176
1
 62
5
420
255
176
1
290
0
176
1
 90
50
176
1
 90
50
176
1
 90
50
176
1
290
0
176
1
 90
50
176
1
 62
256
176
0
 40
1.0
176
0
 90
2
176
1
  1
strokes_ogs.tif
176
1
290
0
176
1
 40
1.0
176
1
 40
1.0
176
1
  0
VISUALSTYLE
  5
6E
102
{ACAD_REACTORS
330
16
102
}
330
16
100
AcDbVisualStyle
  2
Shades of Gray
 70
23
177
3
291
0
 70
58
 90
2
176
1
 90
2
176
1
 90
0
176
1
 90
2
176
1
 40
0.6
176
1
 40
30.0
176
1
 62
7
420
16777215
176
1
 90
1
176
1
 90
4
176
1
 62
7
176
1
 62
257
176
1
 90
1
176
1
 90
1
176
1
 40
1.0
176
1
 90
8
176
1
 62
7
176
1
 40
1.0
176
1
 90
1
176
1
 90
6
176
1
 90
2
176
1
 62
7
176
1
 90
5
176
1
 90
0
176
1
 90
0
176
1
290
0
176
1
 90
1
176
1
 40
0.0
176
1
 90
0
176
1
290
0
176
1
290
1
176
1
290
1
176
1
290
0
176
1
290
0
176
1
290
0
176
1
290
0
176
1
290
0
176
1
290
0
176
1
 90
50
176
1
 40
0.0
176
1
 40
1.0
176
1
 90
0
176
1
 62
18
420
0
176
1
 90
50
176
1
 90
3
176
1
 62
5
420
255
176
1
290
0
176
1
 90
50
176
1
 90
50
176
1
 90
50
176
1
290
0
176
1
 90
50
176
1
 62
256
176
0
 40
1.0
176
0
 90
2
176
1
  1
strokes_ogs.tif
176
1
290
0
176
1
 40
1.0
176
1
 40
1.0
176
1
  0
VISUALSTYLE
  5
6F
102
{ACAD_REACTORS
330
16
102
}
330
16
100
AcDbVisualStyle
  2
Sketchy
 70
24
177
3
291
0
 70
58
 90
2
176
1
 90
2
176
1
 90
0
176
1
 90
1
176
1
 40
0.6
176
1
 40
30.0
176
1
 62
7
420
16777215
176
1
 90
1
176
1
 90
4
176
1
 62
7
176
1
 62
257
176
1
 90
1
176
1
 90
1
176
1
 40
1.0
176
1
 90
8
176
1
 62
7
176
1
 40
1.0
176
1
 90
1
176
1
 90
6
176
1
 90
2
176
1
 62
7
176
1
 90
5
176
1
 90
0
176
1
 90
0
176
1
290
0
176
1
 90
1
176
1
 40
0.0
176
1
 90
0
176
1
290
0
176
1
290
1
176
1
290
1
176
1
290
0
176
1
290
0
176
1
290
0
176
1
290
0
176
1
290
0
176
1
290
0
176
1
 90
50
176
1
 40
0.0
176
1
 40
1.0
176
1
 90
0
176
1
 62
18
420
0
176
1
 90
50
176
1
 90
3
176
1
 62
5
420
255
176
1
290
0
176
1
 90
50
176
1
 90
50
176
1
 90
50
176
1
290
0
176
1
 90
50
176
1
 62
256
176
0
 40
1.0
176
0
 90
2
176
1
  1
strokes_ogs.tif
176
1
290
0
176
1
 40
1.0
176
1
 40
1.0
176
1
  0
VISUALSTYLE
  5
70
102
{ACAD_REACTORS
330
16
102
}
330
16
100
AcDbVisualStyle
  2
Thicken
 70
13
177
3
291
1
 70
58
 90
2
176
1
 90
2
176
1
 90
0
176
1
 90
2
176
1
 40
0.6
176
1
 40
30.0
176
1
 62
7
420
16777215
176
1
 90
1
176
1
 90
4
176
1
 62
7
176
1
 62
257
176
1
 90
1
176
1
 90
1
176
1
 40
1.0
176
1
 90
8
176
1
 62
7
176
1
 40
1.0
176
1
 90
1
176
1
 90
6
176
1
 90
2
176
1
 62
7
176
1
 90
5
176
1
 90
0
176
1
 90
0
176
1
290
0
176
1
 90
1
176
1
 40
0.0
176
1
 90
0
176
1
290
0
176
1
290
1
176
1
290
1
176
1
290
0
176
1
290
0
176
1
290
0
176
1
290
0
176
1
290
0
176
1
290
0
176
1
 90
50
176
1
 40
0.0
176
1
 40
1.0
176
1
 90
0
176
1
 62
18
420
0
176
1
 90
50
176
1
 90
3
176
1
 62
5
420
255
176
1
290
0
176
1
 90
50
176
1
 90
50
176
1
 90
50
176
1
290
0
176
1
 90
50
176
1
 62
256
176
0
 40
1.0
176
0
 90
2
176
1
  1
strokes_ogs.tif
176
1
290
0
176
1
 40
1.0
176
1
 40
1.0
176
1
  0
VISUALSTYLE
  5
71
102
{ACAD_REACTORS
330
16
102
}
330
16
100
AcDbVisualStyle
  2
Wireframe
 70
5
177
3
291
0
 70
58
 90
2
176
1
 90
2
176
1
 90
0
176
1
 90
0
176
1
 40
0.6
176
1
 40
30.0
176
1
 62
7
420
16777215
176
1
 90
1
176
1
 90
4
176
1
 62
7
176
1
 62
257
176
1
 90
1
176
1
 90
1
176
1
 40
1.0
176
1
 90
8
176
1
 62
7
176
1
 40
1.0
176
1
 90
1
176
1
 90
6
176
1
 90
2
176
1
 62
7
176
1
 90
5
176
1
 90
0
176
1
 90
0
176
1
290
0
176
1
 90
1
176
1
 40
0.0
176
1
 90
0
176
1
290
0
176
1
290
1
176
1
290
1
176
1
290
0
176
1
290
0
176
1
290
0
176
1
290
0
176
1
290
0
176
1
290
0
176
1
 90
50
176
1
 40
0.0
176
1
 40
1.0
176
1
 90
0
176
1
 62
18
420
0
176
1
 90
50
176
1
 90
3
176
1
 62
5
420
255
176
1
290
0
176
1
 90
50
176
1
 90
50
176
1
 90
50
176
1
290
0
176
1
 90
50
176
1
 62
256
176
0
 40
1.0
176
0
 90
2
176
1
  1
strokes_ogs.tif
176
1
290
0
176
1
 40
1.0
176
1
 40
1.0
176
1
  0
VISUALSTYLE
  5
72
102
{ACAD_REACTORS
330
16
102
}
330
16
100
AcDbVisualStyle
  2
X-Ray
 70
25
177
3
291
0
 70
58
 90
2
176
1
 90
2
176
1
 90
0
176
1
 90
2
176
1
 40
0.5
176
1
 40
30.0
176
1
 62
7
420
16777215
176
1
 90
1
176
1
 90
4
176
1
 62
7
176
1
 62
257
176
1
 90
1
176
1
 90
1
176
1
 40
1.0
176
1
 90
8
176
1
 62
7
176
1
 40
1.0
176
1
 90
1
176
1
 90
6
176
1
 90
2
176
1
 62
7
176
1
 90
5
176
1
 90
0
176
1
 90
0
176
1
290
0
176
1
 90
1
176
1
 40
0.0
176
1
 90
0
176
1
290
0
176
1
290
1
176
1
290
1
176
1
290
0
176
1
290
0
176
1
290
0
176
1
290
0
176
1
290
0
176
1
290
0
176
1
 90
50
176
1
 40
0.0
176
1
 40
1.0
176
1
 90
0
176
1
 62
18
420
0
176
1
 90
50
176
1
 90
3
176
1
 62
5
420
255
176
1
290
0
176
1
 90
50
176
1
 90
50
176
1
 90
50
176
1
290
0
176
1
 90
50
176
1
 62
256
176
0
 40
1.0
176
0
 90
2
176
1
  1
strokes_ogs.tif
176
1
290
0
176
1
 40
1.0
176
1
 40
1.0
176
1
  0
DICTIONARYVAR
  5
24D
330
2D
100
DictionaryVariables
280
0
  1
1.4.4 @ 2026-09-16T04:58:21.286481+00:00
  0
ENDSEC
  0
EOF
